<?xml version="1.0" encoding="UTF-8" standalone="no"?>
<!-- Created with Inkscape (http://www.inkscape.org/) -->
<svg xmlns:rdf="http://www.w3.org/1999/02/22-rdf-syntax-ns#" xmlns="http://www.w3.org/2000/svg" height="740" width="1100" version="1.1" xmlns:cc="http://creativecommons.org/ns#" xmlns:dc="http://purl.org/dc/elements/1.1/">
 <defs>
  <filter id="filter4151" height="1.2175772" width="1.1393774" y="-0.10878859" x="-0.069688713">
   <feGaussianBlur stdDeviation="14.654353"/>
  </filter>
  <filter id="filter4110">
   <feGaussianBlur stdDeviation="12.549931"/>
  </filter>
 </defs>
 <metadata>
  <rdf:RDF>
   <cc:Work rdf:about="">
    <dc:format>image/svg+xml</dc:format>
    <dc:type rdf:resource="http://purl.org/dc/dcmitype/StillImage"/>
    <dc:title/>
   </cc:Work>
  </rdf:RDF>
 </metadata>
 <g transform="translate(0,-308.2677)">
  <path fill="#f0e044" d="m900,420,64,10s-20,110-21,150c-3.7,24-17,62-29,87-10,30-110,210-340,230-170,10-340-100-390-140s-120-120-110-120c5-10,33-50,33-50,170,40,340,90,470,70,180-30,230-70,280-130,39-50,47-81,58-110z"/>
  <path fill="#000" d="m99,590c8,17,19,30,19,30-23,16-33,39-33,39s-16-8.8-21-24c0,0,11-27,35-44z"/>
  <path fill="#000" d="m970,430s-42,24-64,19c-5.3-13-0.14-30-0.14-30,17,4.8,65,11,65,11z"/>
  <path opacity="0.20720723" d="m750,200s13,100-84,220c-80,94-260,110-300,110-43,1-120-16-120-16l6.1-25s210-16,290-55c80-38,110-51,150-120,41-67,58-110,58-110z" transform="matrix(1.2583997,0.60873476,-0.43758266,1.3114178,53.217037,-107.35307)" filter="url(#filter4151)" fill="#000"/>
  <path stroke-linejoin="miter" style="marker-start:none;" d="m130,330s190,160,400,150c210-12,320-93,390-320" transform="matrix(0.99994531,-0.01045831,0.01045831,0.99994531,0.6383132,315.81066)" filter="url(#filter4110)" stroke="#686834" stroke-linecap="round" stroke-miterlimit="4" stroke-dasharray="none" stroke-width="5" fill="none"/>
 </g>
</svg>
