<?xml version="1.0" encoding="UTF-8" standalone="no"?>
<!-- Created with Inkscape (http://www.inkscape.org/) -->
<svg xmlns:rdf="http://www.w3.org/1999/02/22-rdf-syntax-ns#" xmlns="http://www.w3.org/2000/svg" height="744.09" width="1052.4" version="1.1" xmlns:cc="http://creativecommons.org/ns#" xmlns:dc="http://purl.org/dc/elements/1.1/">
 <defs>
  <filter id="filter4151" height="1.2175772" width="1.1393774" y="-0.10878859" x="-0.069688713">
   <feGaussianBlur stdDeviation="14.654353"/>
  </filter>
 </defs>
 <metadata>
  <rdf:RDF>
   <cc:Work rdf:about="">
    <dc:format>image/svg+xml</dc:format>
    <dc:type rdf:resource="http://purl.org/dc/dcmitype/StillImage"/>
    <dc:title/>
   </cc:Work>
  </rdf:RDF>
 </metadata>
 <g transform="translate(0,-308.2677)">
  <path fill="#f0e044" d="m903.36,422.28,64.319,10.347s-20.022,112.78-20.614,145.34c-3.6548,23.747-17.17,62.135-29.44,87.318-18.85,38.68-113.9,213.01-344.62,232.34-176.19,14.76-347.27-95.58-391.57-136.24-46.73-42.9-116.16-121.19-115.41-123.17,4.729-12.53,33.031-45.43,33.031-45.43,170.59,38.38,337.81,83.69,470.44,65.79,178.23-25.88,228.83-64.71,275.56-124.25,39.497-50.318,46.868-80.626,58.297-112.05z"/>
  <path fill="#000" d="m99.057,592.79c7.991,17.204,19.433,29.989,19.433,29.989-22.924,15.988-33.398,38.864-33.398,38.864s-16.226-8.8441-21.071-24.418c0,0,10.954-27.304,35.036-44.434z"/>
  <path fill="#000" d="m967.67,432.09s-42.481,24.277-64.368,19.093c-5.2769-13.203-0.14111-30.101-0.14111-30.101,16.84,4.7844,64.509,11.009,64.509,11.009z"/>
  <path opacity="0.20720723" d="m753.57,202.65s13.287,100.82-83.843,215.16c-79.802,93.944-255.46,107.03-301.03,108.09-43.437,1.0102-119.2-16.162-119.2-16.162l6.0609-25.254s208.09-16.162,287.89-54.548c79.802-38.386,111.12-50.508,152.53-117.18,41.416-66.67,57.579-110.11,57.579-110.11z" transform="matrix(1.2583997,0.60873476,-0.43758266,1.3114178,53.217037,-107.35307)" filter="url(#filter4151)" fill="#000"/>
 </g>
</svg>
