<?xml version="1.0"?><svg width="700" height="450" xmlns="http://www.w3.org/2000/svg" xmlns:xlink="http://www.w3.org/1999/xlink">
 <defs>
  <filter color-interpolation-filters="sRGB" height="1.431329" y="-0.215664" width="1.541053" x="-0.270526" id="filter3852">
   <feGaussianBlur id="feGaussianBlur3854" stdDeviation="6.912788"/>
  </filter>
  <filter color-interpolation-filters="sRGB" id="filter3894">
   <feGaussianBlur id="feGaussianBlur3896" stdDeviation="0.363956"/>
  </filter>
  <filter color-interpolation-filters="sRGB" height="1.622017" y="-0.311009" width="1.148684" x="-0.074342" id="filter3922">
   <feGaussianBlur id="feGaussianBlur3924" stdDeviation="15.621825"/>
  </filter>
  <filter color-interpolation-filters="sRGB" height="1.237462" y="-0.118731" width="1.242593" x="-0.121297" id="filter3928">
   <feGaussianBlur id="feGaussianBlur3930" stdDeviation="4.659386"/>
  </filter>
  <filter color-interpolation-filters="sRGB" height="1.35465" y="-0.177325" width="1.373718" x="-0.186859" id="filter3946">
   <feGaussianBlur id="feGaussianBlur3948" stdDeviation="8.669986"/>
  </filter>
  <filter color-interpolation-filters="sRGB" height="1.427661" y="-0.213831" width="1.23692" x="-0.11846" id="filter3980">
   <feGaussianBlur id="feGaussianBlur3982" stdDeviation="34.516738"/>
  </filter>
  <clipPath id="clipPath3986" clipPathUnits="userSpaceOnUse">
   <path fill="url(#radialGradient3990)" id="path3988" d="m-1.632512,-243.501556c4.15502,-9.207428 11.32705,-21.428589 21.428571,-21.428589c16.162441,0 21.929302,23.86731 34.285721,34.285736c18.282631,15.415161 38.390877,28.597839 58.571426,41.428589c23.575768,14.98938 47.048149,30.733032 72.85714,41.428558c31.483688,13.047211 64.771271,22.783913 98.571411,27.14286c38.729797,4.99469 78.869659,6.324158 117.142853,-1.428589c24.70047,-5.003418 47.577637,-17.065559 70,-28.571419c21.511292,-11.03833 42.52301,-23.499573 61.428589,-38.571411c21.06311,-16.791931 40.372925,-36.062225 57.142822,-57.142883c11.186951,-14.062531 21.007202,-29.414459 28.571472,-45.714264c11.157104,-24.041901 2.011108,-61.349884 24.285706,-75.714294c10.47406,-6.754486 30.540405,-6.284851 37.142822,4.285706c4.547791,7.281067 -7.698303,15.745605 -8.571411,24.285736c-1.075317,10.518311 2.440247,21.017731 4.285706,31.428558c2.722656,15.358978 6.561035,30.499695 10,45.714294c3.234192,14.308472 10.321106,28.191193 10,42.857147c-0.541138,24.719299 -8.426208,49.579407 -20,71.428558c-13.12854,24.78434 -32.998596,46.024269 -54.285706,64.285744c-30.496765,26.162109 -66.554871,45.633362 -102.857117,62.857117c-25.988495,12.330322 -53.319885,22.460938 -81.428589,28.571411c-25.698273,5.586548 -52.277985,7.65625 -78.571442,7.142883c-33.12915,-0.646851 -66.27655,-5.440979 -98.571411,-12.857178c-45.497009,-10.447937 -91.772629,-22.12262 -132.857132,-44.285706c-27.752441,-14.971069 -53.484833,-34.872192 -74.285709,-58.571411c-19.016659,-21.666382 -33.291382,-47.63636 -44.285722,-74.285744c-5.99027,-14.519928 -9.99682,-30.072601 -11.42857,-45.714294c-0.69586,-7.602112 -1.71146,-15.898926 1.42857,-22.857117z"/>
  </clipPath>
  <filter color-interpolation-filters="sRGB" height="1.435702" y="-0.217851" width="1.165613" x="-0.082806" id="filter3994">
   <feGaussianBlur id="feGaussianBlur3996" stdDeviation="6.487259"/>
  </filter>
  <filter color-interpolation-filters="sRGB" height="1.626759" y="-0.31338" width="2.99716" x="-0.99858" id="filter4024">
   <feGaussianBlur id="feGaussianBlur4026" stdDeviation="6.480604"/>
  </filter>
  <filter color-interpolation-filters="sRGB" id="filter4048">
   <feGaussianBlur id="feGaussianBlur4050" stdDeviation="0.54122"/>
  </filter>
  <filter color-interpolation-filters="sRGB" height="1.602187" y="-0.301094" width="1.895123" x="-0.447562" id="filter4114">
   <feGaussianBlur id="feGaussianBlur4116" stdDeviation="0.536115"/>
  </filter>
  <filter color-interpolation-filters="sRGB" height="1.648" y="-0.324" width="1.81" x="-0.405" id="filter4133">
   <feGaussianBlur id="feGaussianBlur4135" stdDeviation="0.340926"/>
  </filter>
  <filter color-interpolation-filters="sRGB" height="1.798116" y="-0.399058" width="1.655812" x="-0.327906" id="filter4145">
   <feGaussianBlur id="feGaussianBlur4147" stdDeviation="1.388156"/>
  </filter>
  <filter color-interpolation-filters="sRGB" height="1.372837" y="-0.186418" width="1.60043" x="-0.300215" id="filter4184">
   <feGaussianBlur id="feGaussianBlur4186" stdDeviation="5.580918"/>
  </filter>
  <linearGradient id="linearGradient3952">
   <stop stop-color="#000000" id="stop3954" offset="0"/>
   <stop stop-color="#000000" stop-opacity="0" id="stop3956" offset="1"/>
  </linearGradient>
  <linearGradient id="linearGradient3062">
   <stop stop-color="#af9926" id="stop3064" offset="0"/>
   <stop stop-color="#af9926" stop-opacity="0" id="stop3066" offset="1"/>
  </linearGradient>
  <linearGradient id="linearGradient3052">
   <stop stop-color="#9a7c17" id="stop3054" offset="0"/>
   <stop stop-color="#9a7c17" stop-opacity="0" id="stop3056" offset="1"/>
  </linearGradient>
  <linearGradient id="linearGradient3042">
   <stop stop-color="#f4ca49" id="stop3044" offset="0"/>
   <stop stop-color="#9a7c17" id="stop3046" offset="1"/>
  </linearGradient>
  <linearGradient id="linearGradient3032">
   <stop stop-color="#af9926" id="stop3034" offset="0"/>
   <stop stop-color="#af9926" stop-opacity="0" id="stop3036" offset="1"/>
  </linearGradient>
  <radialGradient r="349.65521" fy="511.78149" fx="375.68546" cy="511.78149" cx="375.68546" gradientTransform="matrix(0.5986220836639404,-0.06068189814686775,0.02787923999130726,0.27502650022506714,120.98971557617188,-255.087158203125)" gradientUnits="userSpaceOnUse" id="radialGradient3990" xlink:href="#linearGradient3062"/>
  <linearGradient y2="0.317616" x2="0.92031" y1="0.088992" x1="0.946867" id="linearGradient4368" xlink:href="#linearGradient3032"/>
  <linearGradient y2="0.032899" x2="0.992821" y1="0.362131" x1="0.939841" id="linearGradient4370" xlink:href="#linearGradient3042"/>
  <linearGradient y2="0.634739" x2="0.156294" y1="0.332366" x1="0.013297" id="linearGradient4372" xlink:href="#linearGradient3052"/>
  <radialGradient r="349.65521" fy="511.78149" fx="375.68546" cy="511.78149" cx="375.68546" gradientTransform="matrix(0.5794389247894287,-0.058737318962812424,0.026985829696059227,0.2662131190299988,129.07369995117188,136.638671875)" gradientUnits="userSpaceOnUse" id="radialGradient4374" xlink:href="#linearGradient3062"/>
  <linearGradient y2="0.710398" x2="0.53406" y1="1.059797" x1="0.52106" id="linearGradient4376" xlink:href="#linearGradient3952"/>
 </defs>
 <metadata id="metadata7">image/svg+xml</metadata>
 <g>
  <title>Layer 1</title>
  <path fill="#f0c744" d="m10.380968,147.853027c4.021871,-8.912354 10.964071,-20.741875 20.74188,-20.741875c15.644512,0 21.22657,23.10247 33.187019,33.187004c17.696762,14.921204 37.160629,27.681396 56.694473,40.100952c22.820274,14.509094 45.540459,29.74823 70.522392,40.101013c30.474762,12.629089 62.695633,22.053772 95.412628,26.27301c37.488678,4.834656 76.342255,6.121521 113.388977,-1.382751c23.908936,-4.843079 46.052979,-16.518738 67.756805,-27.655884c20.82193,-10.68457 41.160339,-22.746521 59.460083,-37.335388c20.388123,-16.253784 39.079163,-34.906555 55.311646,-55.311646c10.82843,-13.611938 20.333984,-28.471855 27.655823,-44.249382c10.799622,-23.271423 1.946716,-59.38385 23.507507,-73.287964c10.138367,-6.538025 29.561768,-6.083435 35.952576,4.148376c4.402039,7.047729 -7.451599,15.241028 -8.296753,23.507446c-1.040894,10.181274 2.362061,20.344238 4.148376,30.421448c2.635376,14.866821 6.35083,29.522339 9.679565,44.249321c3.130493,13.849976 9.990295,27.287842 9.679565,41.483826c-0.523865,23.927124 -8.15625,47.990601 -19.359131,69.139587c-12.707825,23.990051 -31.941162,44.549377 -52.546082,62.225647c-29.519531,25.32373 -64.422119,44.171082 -99.561035,60.842834c-25.15567,11.935181 -51.611206,21.741089 -78.819153,27.655884c-24.874756,5.407471 -50.602692,7.410767 -76.053589,6.91394c-32.067505,-0.626099 -64.152679,-5.266602 -95.412659,-12.44519c-44.039017,-10.113159 -88.831711,-21.413635 -128.599625,-42.866516c-26.863091,-14.491333 -51.770874,-33.7547 -71.90519,-56.694519c-18.407253,-20.972046 -32.224533,-46.109802 -42.866554,-71.905151c-5.798318,-14.054626 -9.676468,-29.108948 -11.062338,-44.249329c-0.67356,-7.358521 -1.65661,-15.389465 1.38279,-22.124695z" id="path2996"/>
  <path fill="#f4ca49" d="m32.50565,127.111153c0.074348,-5.254883 4.53846,-11.354858 9.679539,-12.445129c14.32283,-3.037415 25.381088,14.701103 38.718178,20.741875c17.936882,8.124207 37.294334,12.797729 55.311676,20.741882c23.200333,10.22937 44.315857,24.904602 67.756821,34.569824c23.718216,9.77948 48.392624,17.309692 73.287964,23.507446c17.722626,4.412048 35.685699,8.817322 53.928894,9.679565c22.176605,1.048096 44.596008,-1.216309 66.374023,-5.531189c20.876984,-4.136353 41.262512,-11.018311 60.842834,-19.35907c16.888031,-7.193909 33.689209,-15.290527 48.397736,-26.273071c15.147186,-11.309998 26.374786,-27.103088 40.100983,-40.100952c13.035583,-12.343925 29.564941,-21.416801 40.100952,-35.952629c7.388489,-10.193298 10.592651,-22.857971 15.210754,-34.569763c3.582703,-9.086121 10.118652,-17.898804 9.679504,-27.655884c-0.250427,-5.563782 -6.153381,-9.69342 -6.91394,-15.210693c-0.827942,-6.005798 -2.661133,-15.273438 2.765564,-17.976318c6.091797,-3.034119 13.328735,4.70813 17.976318,9.679565c3.803406,4.068481 6.522827,9.655029 6.91394,15.210693c1.720886,24.442627 -10.757751,48.14563 -20.741882,70.5224c-7.505432,16.821533 -5.548096,36.422478 -16.593506,51.163322c-14.873962,19.850464 -43.417358,34.991577 -62.225647,51.16333c-17.157654,14.752441 -36.792267,26.568604 -56.694458,37.335388c-23.422638,12.671265 -47.246307,26.235352 -73.287964,31.804199c-37.864868,8.097168 -77.703369,5.945313 -116.154572,1.382813c-35.413391,-4.202087 -70.783539,-12.574219 -103.709366,-26.273071c-32.259033,-13.421387 -60.454849,-35.091431 -89.8815,-53.928894c-10.336685,-6.617004 -21.595253,-12.213623 -30.421425,-20.741882c-12.33152,-11.915283 -30.664013,-24.337891 -30.421421,-41.483757z" id="path2998"/>
  <path fill="url(#linearGradient4368)" id="path3030" d="m10.380968,147.853027c4.021871,-8.912354 10.964071,-20.741875 20.74188,-20.741875c15.644512,0 21.22657,23.10247 33.187019,33.187004c17.696762,14.921204 37.160629,27.681396 56.694473,40.100952c22.820274,14.509094 45.540459,29.74823 70.522392,40.101013c30.474762,12.629089 62.695633,22.053772 95.412628,26.27301c37.488678,4.834656 76.342255,6.121521 113.388977,-1.382751c23.908936,-4.843079 46.052979,-16.518738 67.756805,-27.655884c20.82193,-10.68457 41.160339,-22.746521 59.460083,-37.335388c20.388123,-16.253784 39.079163,-34.906555 55.311646,-55.311646c10.82843,-13.611938 20.333984,-28.471855 27.655823,-44.249382c10.799622,-23.271423 1.946716,-59.38385 23.507507,-73.287964c10.138367,-6.538025 29.561768,-6.083435 35.952576,4.148376c4.402039,7.047729 -7.451599,15.241028 -8.296753,23.507446c-1.040894,10.181274 2.362061,20.344238 4.148376,30.421448c2.635376,14.866821 6.35083,29.522339 9.679565,44.249321c3.130493,13.849976 9.990295,27.287842 9.679565,41.483826c-0.523865,23.927124 -8.15625,47.990601 -19.359131,69.139587c-12.707825,23.990051 -31.941162,44.549377 -52.546082,62.225647c-29.519531,25.32373 -64.422119,44.171082 -99.561035,60.842834c-25.15567,11.935181 -51.611206,21.741089 -78.819153,27.655884c-24.874756,5.407471 -50.602692,7.410767 -76.053589,6.91394c-32.067505,-0.626099 -64.152679,-5.266602 -95.412659,-12.44519c-44.039017,-10.113159 -88.831711,-21.413635 -128.599625,-42.866516c-26.863091,-14.491333 -51.770874,-33.7547 -71.90519,-56.694519c-18.407253,-20.972046 -32.224533,-46.109802 -42.866554,-71.905151c-5.798318,-14.054626 -9.676468,-29.108948 -11.062338,-44.249329c-0.67356,-7.358521 -1.65661,-15.389465 1.38279,-22.124695z"/>
  <path fill="url(#linearGradient4370)" id="path3040" d="m32.50565,127.111153c0.074348,-5.254883 4.53846,-11.354858 9.679539,-12.445129c14.32283,-3.037415 25.381088,14.701103 38.718178,20.741875c17.936882,8.124207 37.294334,12.797729 55.311676,20.741882c23.200333,10.22937 44.315857,24.904602 67.756821,34.569824c23.718216,9.77948 48.392624,17.309692 73.287964,23.507446c17.722626,4.412048 35.685699,8.817322 53.928894,9.679565c22.176605,1.048096 44.596008,-1.216309 66.374023,-5.531189c20.876984,-4.136353 41.262512,-11.018311 60.842834,-19.35907c16.888031,-7.193909 33.689209,-15.290527 48.397736,-26.273071c15.147186,-11.309998 26.374786,-27.103088 40.100983,-40.100952c13.035583,-12.343925 29.564941,-21.416801 40.100952,-35.952629c7.388489,-10.193298 10.592651,-22.857971 15.210754,-34.569763c3.582703,-9.086121 10.118652,-17.898804 9.679504,-27.655884c-0.250427,-5.563782 -6.153381,-9.69342 -6.91394,-15.210693c-0.827942,-6.005798 -2.661133,-15.273438 2.765564,-17.976318c6.091797,-3.034119 13.328735,4.70813 17.976318,9.679565c3.803406,4.068481 6.522827,9.655029 6.91394,15.210693c1.720886,24.442627 -10.757751,48.14563 -20.741882,70.5224c-7.505432,16.821533 -5.548096,36.422478 -16.593506,51.163322c-14.873962,19.850464 -43.417358,34.991577 -62.225647,51.16333c-17.157654,14.752441 -36.792267,26.568604 -56.694458,37.335388c-23.422638,12.671265 -47.246307,26.235352 -73.287964,31.804199c-37.864868,8.097168 -77.703369,5.945313 -116.154572,1.382813c-35.413391,-4.202087 -70.783539,-12.574219 -103.709366,-26.273071c-32.259033,-13.421387 -60.454849,-35.091431 -89.8815,-53.928894c-10.336685,-6.617004 -21.595253,-12.213623 -30.421425,-20.741882c-12.33152,-11.915283 -30.664013,-24.337891 -30.421421,-41.483757z"/>
  <path fill="url(#linearGradient4372)" id="path3050" d="m10.380968,147.853027c4.021871,-8.912354 10.964071,-20.741875 20.74188,-20.741875c15.644512,0 21.22657,23.10247 33.187019,33.187004c17.696762,14.921204 37.160629,27.681396 56.694473,40.100952c22.820274,14.509094 45.540459,29.74823 70.522392,40.101013c30.474762,12.629089 62.695633,22.053772 95.412628,26.27301c37.488678,4.834656 76.342255,6.121521 113.388977,-1.382751c23.908936,-4.843079 46.052979,-16.518738 67.756805,-27.655884c20.82193,-10.68457 41.160339,-22.746521 59.460083,-37.335388c20.388123,-16.253784 39.079163,-34.906555 55.311646,-55.311646c10.82843,-13.611938 20.333984,-28.471855 27.655823,-44.249382c10.799622,-23.271423 1.946716,-59.38385 23.507507,-73.287964c10.138367,-6.538025 29.561768,-6.083435 35.952576,4.148376c4.402039,7.047729 -7.451599,15.241028 -8.296753,23.507446c-1.040894,10.181274 2.362061,20.344238 4.148376,30.421448c2.635376,14.866821 6.35083,29.522339 9.679565,44.249321c3.130493,13.849976 9.990295,27.287842 9.679565,41.483826c-0.523865,23.927124 -8.15625,47.990601 -19.359131,69.139587c-12.707825,23.990051 -31.941162,44.549377 -52.546082,62.225647c-29.519531,25.32373 -64.422119,44.171082 -99.561035,60.842834c-25.15567,11.935181 -51.611206,21.741089 -78.819153,27.655884c-24.874756,5.407471 -50.602692,7.410767 -76.053589,6.91394c-32.067505,-0.626099 -64.152679,-5.266602 -95.412659,-12.44519c-44.039017,-10.113159 -88.831711,-21.413635 -128.599625,-42.866516c-26.863091,-14.491333 -51.770874,-33.7547 -71.90519,-56.694519c-18.407253,-20.972046 -32.224533,-46.109802 -42.866554,-71.905151c-5.798318,-14.054626 -9.676468,-29.108948 -11.062338,-44.249329c-0.67356,-7.358521 -1.65661,-15.389465 1.38279,-22.124695z"/>
  <path fill="url(#radialGradient4374)" id="path3060" d="m10.380968,147.853027c4.021871,-8.912354 10.964071,-20.741875 20.74188,-20.741875c15.644512,0 21.22657,23.10247 33.187019,33.187004c17.696762,14.921204 37.160629,27.681396 56.694473,40.100952c22.820274,14.509094 45.540459,29.74823 70.522392,40.101013c30.474762,12.629089 62.695633,22.053772 95.412628,26.27301c37.488678,4.834656 76.342255,6.121521 113.388977,-1.382751c23.908936,-4.843079 46.052979,-16.518738 67.756805,-27.655884c20.82193,-10.68457 41.160339,-22.746521 59.460083,-37.335388c20.388123,-16.253784 39.079163,-34.906555 55.311646,-55.311646c10.82843,-13.611938 20.333984,-28.471855 27.655823,-44.249382c10.799622,-23.271423 1.946716,-59.38385 23.507507,-73.287964c10.138367,-6.538025 29.561768,-6.083435 35.952576,4.148376c4.402039,7.047729 -7.451599,15.241028 -8.296753,23.507446c-1.040894,10.181274 2.362061,20.344238 4.148376,30.421448c2.635376,14.866821 6.35083,29.522339 9.679565,44.249321c3.130493,13.849976 9.990295,27.287842 9.679565,41.483826c-0.523865,23.927124 -8.15625,47.990601 -19.359131,69.139587c-12.707825,23.990051 -31.941162,44.549377 -52.546082,62.225647c-29.519531,25.32373 -64.422119,44.171082 -99.561035,60.842834c-25.15567,11.935181 -51.611206,21.741089 -78.819153,27.655884c-24.874756,5.407471 -50.602692,7.410767 -76.053589,6.91394c-32.067505,-0.626099 -64.152679,-5.266602 -95.412659,-12.44519c-44.039017,-10.113159 -88.831711,-21.413635 -128.599625,-42.866516c-26.863091,-14.491333 -51.770874,-33.7547 -71.90519,-56.694519c-18.407253,-20.972046 -32.224533,-46.109802 -42.866554,-71.905151c-5.798318,-14.054626 -9.676468,-29.108948 -11.062338,-44.249329c-0.67356,-7.358521 -1.65661,-15.389465 1.38279,-22.124695z"/>
  <path fill="#9a7c17" fill-rule="evenodd" filter="url(#filter3852)" d="m606.376465,139.413467c-0.552124,-0.462769 0.211487,-2.472351 2.170959,-5.646637c1.959473,-3.174301 5.103455,-7.532402 9.648438,-12.404343c0,0 0,0 0,0c1.564209,-1.687721 3.321838,-3.454956 5.335449,-5.205833c2.01355,-1.750839 4.283569,-3.485405 6.888245,-5.061462c3.164673,-1.976349 7.165222,-3.64357 11.964539,-3.859177c3.989624,-0.043541 7.921326,1.212044 11.16449,3.572815c2.3479,1.74485 4.325256,3.805885 5.979797,6.000122c0.91333,1.211212 1.715942,2.444435 2.427673,3.665276c2.907532,4.854454 4.927185,9.785294 6.552063,14.410294c2.153564,6.098892 3.752502,11.86441 4.979065,17.058304c1.226563,5.193863 2.08197,9.817368 2.661072,13.677429c0.579163,3.860062 0.879944,6.95845 0.91626,9.123856c0.036316,2.165421 -0.195068,3.39888 -0.71936,3.528381c-0.524353,0.129501 -1.302185,-0.856003 -2.28064,-2.78476c-0.978577,-1.928757 -2.154663,-4.802307 -3.505127,-8.426559c-1.350525,-3.624222 -2.872742,-7.999268 -4.618408,-12.895493c-1.745667,-4.896225 -3.714905,-10.312042 -6.053772,-15.99353c-1.776123,-4.293259 -3.691284,-8.659409 -6.183105,-12.674675c-0.639526,-0.998978 -1.286011,-1.970886 -1.956177,-2.881119c-1.21405,-1.649025 -2.475464,-3.048317 -3.875122,-4.04274c-1.660889,-1.223915 -3.622375,-1.982491 -5.411682,-1.978531c-2.431824,-0.156029 -5.128906,0.915169 -7.783081,2.169685c-2.180298,1.080856 -4.208557,2.37841 -6.121582,3.737236c-1.913025,1.358826 -3.71051,2.778671 -5.407471,4.146683c0,0 0,0 0,0c-4.866882,3.946907 -8.719421,7.461037 -11.561218,9.776939c-2.841858,2.315933 -4.659241,3.450607 -5.211304,2.987839z" id="path3844"/>
  <path fill="#000000" stroke="#000000" stroke-width="1px" filter="url(#filter4048)" d="m613.030823,3.730821c-0.179138,6.690489 6.311035,11.919386 12.171021,13.745911c9.541138,-0.812103 5.358643,8.756105 7.643005,13.525219c5.557983,-3.27943 12.956055,-0.50235 19.393921,-1.431608c6.166809,-2.127562 13.165161,3.499176 18.13269,0.196497l-10.864319,-17.092129l-12.916382,-6.681775l-18.729919,-3.836016l-14.830017,1.573901z" id="path3902"/>
  <path fill="#c0941d" stroke="#000000" stroke-width="1px" filter="url(#filter3922)" d="m109.709686,263.213593c1.303711,0.651825 4.562988,0.651825 3.911125,1.955597c-0.651848,1.30368 -4.71965,-3.168365 -3.911125,-1.955597c10.483978,15.725952 2.762001,3.528107 6.844482,4.888947c0.691391,0.230408 1.330627,0.602783 1.955566,0.977753c1.007675,0.604614 1.955551,1.303711 2.933334,1.955566c0.977783,0.651825 1.882263,1.430023 2.933342,1.955536c1.883293,0.94165 4.964775,1.328979 6.844475,1.955566c1.629639,0.651886 3.259277,1.303711 4.888901,1.955597c0.325928,0 0.668579,-0.103088 0.977783,0c0.691391,0.230469 1.440216,0.462402 1.955566,0.977753c2.023056,2.023071 -3.091507,-0.079102 0.977783,1.955597c0.291504,0.145752 0.668579,-0.103088 0.977768,0c0.691406,0.230469 1.264175,0.747284 1.955566,0.977753c0.309219,0.103088 0.661591,-0.079102 0.977783,0c0.999908,0.249969 1.933456,0.727783 2.93335,0.977753c3.333313,0.833374 -3.521011,-2.738251 3.911133,0.977814c0.090103,0.045074 1.82341,1.867462 1.955551,1.955536c4.728653,2.364349 -0.052841,-0.284119 2.933334,1.955566c1.249481,2.371521 4.047531,1.720581 5.866714,2.93335c1.150543,0.767029 1.955551,1.955597 2.933319,2.93335c0.325943,0.325958 0.594284,0.722137 0.977798,0.977753c0.6064,0.404297 1.3228,0.616211 1.955566,0.977844c1.65007,0.942902 3.307632,1.87912 4.888916,2.933319c2.933334,1.955536 -1.955566,0 2.933334,2.93335c0.883804,0.530304 2.01149,0.516846 2.93335,0.977783c0.412262,0.206116 0.565521,0.771606 0.977768,0.977814c4.726334,2.363098 1.159821,0.231934 4.888916,0.977753c1.010651,0.202118 1.955566,0.651825 2.93335,0.977753c0.977783,0.325958 2.049545,0.44754 2.933334,0.977844c3.85228,2.31134 -0.224747,2.081055 4.888916,2.933258c0.964478,0.160767 1.955566,0 2.93335,0c0.65184,0 1.316376,-0.127777 1.955566,0c1.010651,0.202179 1.933441,0.727875 2.933319,0.977844c0.316208,0.079041 0.686279,-0.145752 0.977798,0c0.412277,0.206116 0.565506,0.771637 0.977798,0.977753c0.921844,0.460938 2.011475,0.516876 2.933334,0.977814c0.824524,0.412262 1.131027,1.543274 1.955551,1.955536c0.92186,0.460938 2.10881,0.359375 2.93335,0.977814c3.610275,2.707672 -1.980637,1.529327 2.93335,2.93335c1.597961,0.456512 3.285553,0.540466 4.888901,0.977753c1.988708,0.542358 3.845383,1.5513 5.866699,1.955597c1.278381,0.255615 2.607407,0 3.911118,0c1.955566,0 3.911133,0 5.866699,0c1.303696,0 2.615387,-0.143982 3.911118,0c1.651733,0.183502 3.237152,0.794189 4.888901,0.977753c1.295731,0.143982 2.607422,0 3.911133,0c0.977768,0 1.974548,-0.191772 2.93335,0c0.71463,0.142914 1.278885,0.707123 1.955566,0.977753c4.027634,1.611084 2.099197,0.107758 5.866653,2.93335c0.368744,0.27655 0.540527,0.832001 0.977814,0.977814c0.618408,0.206146 1.350342,-0.242096 1.955566,0c4.083588,1.633423 1.801666,1.351196 3.911133,2.93335c0.940125,0.705048 1.882263,1.430023 2.93335,1.955536c0.291504,0.145813 0.658203,-0.063873 0.977783,0c1.317719,0.26355 2.585571,0.756866 3.911133,0.977814c0.642944,0.107178 1.316345,-0.127838 1.955566,0c1.01062,0.202118 1.908966,0.863922 2.933319,0.977753c1.943604,0.215942 3.920837,-0.194611 5.866699,0c1.337158,0.133698 2.575531,0.829407 3.911133,0.977783c1.619659,0.179932 3.259247,0 4.888885,0c4.237061,0 8.474121,0 12.711182,0c2.281494,0 4.562988,0 6.844482,0c1.955536,0 3.919128,-0.177002 5.866669,0c1.65509,0.150452 3.233826,0.827332 4.888916,0.977814c1.94754,0.177002 3.911133,0 5.866669,0c5.214844,0 10.429688,0 15.644531,0c5.214844,0 10.429657,0 15.644501,0c1.955566,0 3.911133,0 5.866699,0c1.955566,0 3.919159,-0.177063 5.866669,0c1.65509,0.150452 3.237183,0.79425 4.888947,0.977753c1.295715,0.143982 2.617462,-0.161713 3.911102,0c1.333435,0.166656 2.575531,0.829346 3.911133,0.977753c1.619659,0.180023 3.259277,0 4.888885,0c1.955597,0 3.911133,0 5.866699,0c5.540771,0 11.081512,0 16.622284,0c3.585205,0 7.17041,0 10.755585,0c0.651855,0 1.303741,0 1.955597,0c0.977783,0 2.058807,0.437317 2.93335,0c0.651855,-0.325867 0.462433,-1.440216 0.977753,-1.955505c0.230469,-0.230469 0.651886,0 0.977783,0c0.648926,0 1.306671,0 1.955566,0c4.888916,0 9.777832,0 14.666748,0c9.777832,0 19.555603,0 29.333435,0c3.259277,0 6.518555,0 9.777832,0c2.93335,0 5.892395,0.387665 8.800018,0c2.043274,-0.272491 3.911133,-1.303711 5.866699,-1.955597c1.955566,-0.651886 3.971985,-1.143524 5.866699,-1.955566c0.423676,-0.181549 0.565521,-0.771637 0.977783,-0.977783c0.291473,-0.145721 0.747284,0.230469 0.977753,0c0.51535,-0.51535 0.462463,-1.440216 0.977814,-1.955566c0.515289,-0.515289 1.26413,-0.747284 1.955536,-0.977753c0.309204,-0.103119 0.832031,0.291473 0.977844,0c0.291443,-0.583069 -0.206238,-1.337158 0,-1.955597c0.145691,-0.437256 0.565491,-0.771637 0.977722,-0.977753c0.291504,-0.145752 0.874756,0.309204 0.977783,0c0.309204,-0.927612 -0.237183,-1.984772 0,-2.93335c0.111816,-0.447174 0.771606,-0.565521 0.977783,-0.977753c0.145752,-0.291565 0,-0.651886 0,-0.977844c0.325928,-0.325928 0.771667,-0.565491 0.977783,-0.977753c0.145752,-0.291504 0,-0.651886 0,-0.977753c0,-0.651886 -0.206116,-1.337219 0,-1.955597c0.145752,-0.437286 0.722107,-0.594269 0.977783,-0.977753c1.889099,-2.833679 -0.250671,-1.830261 3.911133,-3.911163c0.291504,-0.145752 0.706604,0.180786 0.977783,0c0.767029,-0.511322 1.303711,-1.303711 1.955566,-1.955597c0.977783,-0.325867 2.011475,-0.516815 2.93335,-0.977753c2.009827,-1.004944 0.15387,-2.109406 1.955505,-3.911102c0.460938,-0.460938 1.413269,0.361572 1.955627,0c2.862,-1.90802 0.200317,-1.378448 0.977722,-2.93335c0.206116,-0.412262 0.651917,-0.651886 0.977844,-0.977814c0.651794,-0.651825 1.303711,-1.303711 1.955505,-1.955536c0.325928,-0.325928 0.771729,-0.565491 0.977844,-0.977814c0.460938,-0.921814 0.516785,-2.011475 0.977722,-2.93335c0.206177,-0.412231 0.771667,-0.565491 0.977783,-0.977753c0.145813,-0.291504 -0.291504,-0.832001 0,-0.977753c0.583069,-0.291565 1.413208,0.361572 1.955566,0c0.606384,-0.404297 0.462463,-1.440247 0.977783,-1.955597c0.230469,-0.230469 0.747375,0.230469 0.977844,0c0.598938,-0.598938 0.832336,-2.55896 1.955505,-2.93335c0.618408,-0.206116 1.494629,0.460938 1.955566,0c2.477356,-2.477356 0.536133,-2.144623 0.977783,-3.911102c0.25,-0.999908 0.516846,-2.011505 0.977783,-2.933319c0.206177,-0.412323 0.594299,-0.722137 0.977783,-0.977814c1.212769,-0.808502 2.698303,-1.147034 3.911194,-1.955536c0.383484,-0.255707 0.565491,-0.771698 0.977722,-0.977814c0.291504,-0.145752 0.796997,0.27124 0.977783,0c0.571716,-0.857544 0.249023,-2.204559 0.977783,-2.93335c0.72876,-0.72879 2.108826,-0.359375 2.93335,-0.977753c0.583008,-0.437317 0.573486,-1.349213 0.977783,-1.955597c0.255676,-0.383484 0.651794,-0.651825 0.977783,-0.977753c2.676025,-2.676056 -1.616943,1.489136 3.911133,-2.93335c0.719849,-0.575897 1.165039,-1.481293 1.955505,-1.955566c0.88385,-0.530243 2.12854,-0.333923 2.93335,-0.977783c0.917664,-0.7341 1.124634,-2.102386 1.955627,-2.93335c0.51532,-0.51535 1.440186,-0.462463 1.955566,-0.977753c0.830933,-0.830994 1.250488,-1.993286 1.955505,-2.93335c0.27655,-0.368774 0.832031,-0.540512 0.977844,-0.977814c0.388916,-1.16687 -0.388977,-2.744232 0,-3.911102c0.145752,-0.437302 0.651794,-0.651886 0.977722,-0.977829c0.651855,-0.65181 1.09967,-1.613144 1.955627,-1.955521c0.907776,-0.363159 2.058777,0.437256 2.93335,0c0.651794,-0.325943 0.462402,-1.440231 0.977722,-1.955582c0.85437,-0.85434 4.125244,-1.573685 4.888916,-1.955551c0.412292,-0.206131 0.60907,-0.701202 0.977783,-0.977783c0.940125,-0.705093 2.102417,-1.124603 2.93335,-1.955551c0.230469,-0.230469 -0.145752,-0.686264 0,-0.977798c0.206116,-0.412262 0.771606,-0.565506 0.977783,-0.977768c0.145813,-0.291519 -0.145752,-0.686295 0,-0.977783c0.206177,-0.412262 0.771667,-0.565506 0.977783,-0.977798c0.145752,-0.291519 0,-0.65184 0,-0.977753c0,-0.977798 -0.237122,-1.984772 0,-2.93338c0.111816,-0.447144 0.771667,-0.565506 0.977783,-0.977753c0.145752,-0.291534 0,-0.651855 0,-0.977798c0,-0.651855 0,-1.303696 0,-1.955551c0,-0.651855 -0.206116,-1.337173 0,-1.955551c0.072754,-0.218384 1.815186,-1.674896 1.955566,-1.955582c0.145752,-0.291534 -0.145752,-0.686264 0,-0.977798c1.669189,-3.338333 0.977783,3.024033 0.977783,-3.911102c0,-0.325943 0.309204,-0.874725 0,-0.977783c-0.927612,-0.309204 -1.955566,0 -2.93335,0c-0.651855,0 -1.303711,0 -1.955566,0c-1.93396,0 -3.932678,0 -5.866699,0c-0.651855,0 -1.316345,-0.127853 -1.955505,0c-1.010681,0.202133 -1.955627,0.65184 -2.93335,0.977783c-0.977844,0.325912 -2.049622,0.447495 -2.93335,0.977768c-0.790527,0.474319 -1.235779,1.3797 -1.955627,1.955582c-0.917603,0.734085 -1.955566,1.303696 -2.933289,1.955551c-0.977783,0.651855 -1.882263,1.430008 -2.93335,1.955582c-4.726379,2.363144 -1.15979,0.231949 -4.888977,0.977768c-1.01062,0.202133 -1.955505,0.65184 -2.933289,0.977783c-0.977783,0.325912 -2.20459,0.248993 -2.93335,0.977768c-0.728821,0.72879 -0.406067,2.075775 -0.977783,2.933334c-0.180786,0.27121 -0.686279,-0.145752 -0.977783,0c-1.051086,0.525574 -1.993225,1.250473 -2.93335,1.955582c-1.38208,1.036575 -1.809814,2.562897 -2.933289,3.911133c-0.885254,1.062286 -1.871155,2.04808 -2.93335,2.933319c-3.312561,2.760452 -3.010132,1.080124 -5.86676,4.888962c-1.140259,1.52034 -1.490417,3.6521 -2.93335,4.88887c-1.020325,0.874542 -2.792969,0.232346 -3.911133,0.977753c-0.977722,0.651886 -1.124634,2.102402 -1.955566,2.933395c-0.515259,0.515289 -1.386475,0.522491 -1.955505,0.977783c-1.079773,0.8638 -1.955566,1.955566 -2.93335,2.933319c-0.977844,0.977783 -1.955566,1.955597 -2.93335,2.93335c-0.325928,0.325958 -0.53064,0.865997 -0.977844,0.977783c-0.948547,0.237122 -2.005737,-0.309174 -2.933289,0c-1.85022,0.616699 -3.553833,2.576019 -4.888916,3.911163c-0.977783,0.977753 -1.782837,2.16626 -2.93335,2.933319c-0.19342,0.128937 -5.626923,1.811676 -5.866669,1.955536c-3.614044,2.168457 -0.041534,2.240875 -4.888916,2.93335c-1.290619,0.184387 -2.615417,-0.143982 -3.911133,0c-0.626495,0.06958 -7.788818,1.522156 -8.800049,1.955566c-1.080109,0.462891 -1.882263,1.430023 -2.933319,1.955597c-0.921875,0.460938 -1.986023,0.571777 -2.93335,0.977753c-1.339752,0.574188 -2.571411,1.381378 -3.911133,1.955566c-3.295776,1.412476 -3.123138,0.715118 -6.844482,1.955536c-1.629608,0.651886 -3.259247,1.303711 -4.888916,1.955566c-0.651825,0.977783 -0.947845,2.328735 -1.955536,2.93335c-0.83847,0.503082 -1.993195,-0.268616 -2.93335,0c-2.911591,0.083374 -4.351624,3.08017 -6.844482,3.911102c-0.927612,0.309235 -1.974548,-0.191711 -2.93335,0c-0.71463,0.142975 -1.254791,0.777618 -1.955566,0.977844c-7.058105,2.016602 -2.753479,-0.425842 -8.800049,2.933319c-4.085449,-0.0112 -4.992401,4.249634 -7.822235,5.866699c-1.166779,0.666718 -2.744354,0.311066 -3.911133,0.977753c-1.200562,0.686096 -1.662354,2.388641 -2.93335,2.93335c-1.198303,0.51358 -2.607391,0 -3.911102,0c-1.629639,0 -3.259277,0 -4.888916,0c-0.977783,0 -1.955566,0 -2.93335,0c-0.651855,0 -1.316376,-0.127838 -1.955536,0c-1.010681,0.202118 -1.913055,0.832031 -2.93338,0.977753c-1.290588,0.184387 -2.607422,0 -3.911102,0c-0.977814,0 -1.955566,0 -2.93335,0c-1.303711,0 -2.615387,-0.14389 -3.911133,0c-1.651733,0.183563 -3.237152,0.794281 -4.888916,0.977844c-1.295746,0.143982 -2.620514,-0.184387 -3.911133,0c-1.020294,0.145752 -1.955536,0.651825 -2.93335,0.977753c-1.30368,0.325928 -2.577637,0.811096 -3.911133,0.977814c-1.29361,0.161713 -2.607391,0 -3.911133,0c-1.629608,0 -3.259247,0 -4.888885,0c-3.585205,0 -7.17038,0 -10.755585,0c-2.607422,0 -5.214844,0 -7.822266,0c-1.955566,0 -3.942657,0.349823 -5.866669,0c-1.726837,-0.313995 -3.162079,-1.641632 -4.888916,-1.955566c-1.924011,-0.349823 -3.911102,0 -5.866699,0c-1.629639,0 -3.259247,0 -4.888885,0c-7.17041,0 -14.34082,0 -21.5112,0c-7.17038,0 -14.34082,0 -21.5112,0c-2.607422,0 -5.214844,0 -7.822235,0c-1.303741,0 -2.632751,0.255676 -3.911133,0c-3.063232,-0.612671 -6.525665,-2.608124 -9.777832,-2.93335c-1.945862,-0.194611 -3.911133,0 -5.866699,0c-0.055542,0 -10.111877,0 -10.755615,0c-1.955551,0 -3.911102,0 -5.866669,0c-1.303726,0 -2.646362,0.316193 -3.911148,0c-1.414063,-0.353546 -2.509613,-1.555145 -3.911118,-1.955597c-0.940155,-0.268616 -1.955566,0 -2.93335,0c-1.303711,0 -2.657578,0.358215 -3.911133,0c-1.129929,-0.322784 -1.786163,-1.700653 -2.933334,-1.955505c-1.908997,-0.424255 -3.957687,0.424194 -5.866684,0c-1.147171,-0.255005 -1.853226,-1.492706 -2.93335,-1.955597c-1.235184,-0.529327 -2.623978,-0.591614 -3.911133,-0.977814c-1.974396,-0.592255 -3.866882,-1.455597 -5.866684,-1.955536c-19.48764,-4.871887 7.648743,2.546204 -11.733383,-0.977814c-9.058456,-1.646942 -0.949066,-2.148224 -8.800034,-2.93335c-16.816788,0 2.957718,0.874573 -9.777817,-1.955505c-1.590836,-0.353546 -3.321976,0.447693 -4.888901,0c-0.886398,-0.253265 -1.09964,-1.61322 -1.955566,-1.955597c-0.654694,-0.261902 -5.330994,0.267883 -5.866684,0c-0.651871,-0.325928 -0.462463,-1.440216 -0.977798,-1.955566c-0.230453,-0.230408 -0.832031,0.291534 -0.977768,0c-0.291534,-0.583008 0.361572,-1.413177 0,-1.955536c-0.404266,-0.606384 -1.440247,-0.462463 -1.955566,-0.977814c-0.515335,-0.515289 -0.573517,-1.349121 -0.977783,-1.955536c-0.255676,-0.383545 -0.722107,-0.594269 -0.977783,-0.977814c-2.367828,-3.551727 0.286331,-0.691406 -1.955582,-2.933319c-0.325912,-0.325897 -0.530594,-0.865997 -0.977768,-0.977783c-0.948578,-0.237122 -2.151108,0.58667 -2.93335,0c-0.824524,-0.618378 -0.333923,-2.12851 -0.977768,-2.93335c-1.052765,-1.315979 -8.765762,-4.876434 -8.800034,-4.888916c-1.561859,-0.567932 -3.312286,-0.45224 -4.888916,-0.977753c-1.382797,-0.460938 -2.571381,-1.381409 -3.911118,-1.955597c-0.947342,-0.405975 -2.01149,-0.516815 -2.93335,-0.977753c-0.412262,-0.206116 -0.565521,-0.771637 -0.977783,-0.977753c-0.291519,-0.145813 -0.747314,0.230469 -0.977783,0c-0.515335,-0.51535 -0.462433,-1.440247 -0.977783,-1.955597c-0.230453,-0.230469 -0.651855,0 -0.977768,0c-2.607422,0 -5.214828,0 -7.822258,0c-0.325928,0 -0.651855,0 -0.977783,0c-0.32592,0 -0.832016,0.291504 -0.977783,0c-0.291519,-0.583038 0.46093,-1.494629 0,-1.955566c-0.460938,-0.460938 -1.303703,0 -1.955559,0c-0.651855,0 -1.303711,0 -1.955566,0c-0.32592,0 -0.747307,0.230469 -0.977783,0c-0.515335,-0.51535 -0.462448,-1.440247 -0.977776,-1.955536c-0.230469,-0.230469 -0.651863,0 -0.977776,0c-0.325935,0 -0.651863,0 -0.977791,0c-0.651855,0 -1.303711,0 -1.955566,0c-0.32592,0 -0.706589,-0.180847 -0.977783,0c-1.736443,1.157593 -3.25927,2.607422 -4.888908,3.911102z" id="path3920"/>
  <path fill="#b3880c" filter="url(#filter3928)" d="m28.55381,169.346542c1.470167,2.574722 4.906212,1.382706 6.844475,2.933334c0.917629,0.734116 0.935246,2.350327 1.955559,2.93335c1.442947,0.824539 3.332821,0.394257 4.888912,0.977783c2.563076,-0.857117 2.398045,2.32811 3.911129,2.93335c1.247715,0.499069 2.70916,0.37677 3.911129,0.977768c0.824532,0.412277 1.303707,1.303726 1.955555,1.955582c0.651863,0.65184 1.188534,1.444183 1.955566,1.955551c1.212791,0.808517 2.636963,1.247696 3.911129,1.955582c0.961452,0.534134 4.934834,3.147263 6.844463,3.911102c0.956963,0.382797 1.933449,0.727829 2.93335,0.977783c0.3162,0.079086 0.651855,0 0.977783,0c0.325928,0 0.747314,-0.230469 0.977783,0c0.227638,0.227646 -0.203949,1.547684 0,1.955566c0.206139,0.412277 0.771645,0.565536 0.977783,0.977783c0.145752,0.291534 -0.145767,0.686264 0,0.977798c0.206131,0.412247 0.771637,0.565506 0.977776,0.977753c0.14576,0.291534 -0.145752,0.686264 0,0.977798c0.206131,0.412247 0.701225,0.609039 0.977783,0.977783c0.705093,0.940109 1.124603,2.102402 1.955566,2.93335c0.230461,0.230469 0.686256,-0.145782 0.977776,0c6.862099,4.574707 -0.120224,0.703278 4.888908,1.955551c0.707039,0.176758 1.303703,0.651855 1.955566,0.977783c0.651848,0.325912 1.440231,0.462448 1.955559,0.977768c0.230469,0.230469 -0.230461,0.74733 0,0.977798c0.230469,0.230469 0.686272,-0.145752 0.977791,0c0.412262,0.206146 0.565506,0.771652 0.977776,0.977783c0.291519,0.145752 0.686264,-0.145782 0.977783,0c0.41227,0.206131 0.565514,0.771637 0.977776,0.977768c0.104393,0.052185 1.757362,-0.049545 1.955566,0c0.999901,0.249985 1.933449,0.727829 2.933357,0.977783c0.316185,0.079086 0.65184,0 0.977776,0c0.325928,0 0.651848,0 0.977776,0c1.303711,0 2.607414,0 3.911125,0c0.325935,0 0.832031,0.291534 0.977791,0c0.291512,-0.583023 0,-1.303696 0,-1.955551c0,-0.325943 0,-0.651855 0,-0.977783c0,-2.607407 0,-5.214844 0,-7.82225c0,-0.65274 0,-1.302841 0,-1.955582c0,-0.325912 0.291512,-0.832016 0,-0.977753c-5.214844,0 0.651855,0.65184 -1.955566,-1.955582c-0.46093,-0.460938 -1.494629,0.460922 -1.955559,0c-0.460938,-0.460938 0,-1.303711 0,-1.955566c0,-0.325928 0.230461,-0.747314 0,-0.977783c-0.515343,-0.51532 -1.349174,-0.573517 -1.955566,-0.977798c-0.383514,-0.255661 -0.565506,-0.771622 -0.977776,-0.977753c-0.40789,-0.203949 -1.727936,0.227631 -1.955574,0c-0.515327,-0.51535 -0.747314,-1.264175 -0.977783,-1.955551c-0.103058,-0.309219 0.291519,-0.832047 0,-0.977798c-0.583038,-0.291519 -1.494621,0.460938 -1.955566,0c-0.46093,-0.460938 0,-1.303696 0,-1.955551c0,-0.325943 0.291519,-0.832047 0,-0.977783c-5.214821,0 0.651863,0.65184 -1.955559,-1.955582c-0.46093,-0.460907 -1.303711,0 -1.955566,0c-0.32592,0 -0.747307,0.230484 -0.977776,0c-0.515343,-0.51532 -0.747322,-1.26416 -0.977783,-1.955566c-0.103065,-0.309189 0.291519,-0.832001 0,-0.977783c-0.583031,-0.291504 -1.494637,0.460938 -1.955559,0c-0.460938,-0.460907 0.46093,-1.494614 0,-1.955551c-0.460938,-0.460938 -1.413193,0.361588 -1.955566,0c-0.606392,-0.404251 -0.462448,-1.440231 -0.977783,-1.955551c-0.230469,-0.230469 -0.651855,0 -0.977776,0c-0.325935,-0.651855 -0.462448,-1.440247 -0.977791,-1.955582c-0.230461,-0.230469 -0.832024,0.291519 -0.977776,0c-0.291519,-0.583023 0.46093,-1.494629 0,-1.955551c-0.46093,-0.460938 -1.494629,0.460922 -1.955566,0c-0.46093,-0.460938 0.46093,-1.494629 0,-1.955566c-0.46093,-0.460938 -1.494629,0.460938 -1.955559,0c-0.46093,-0.460938 0.46093,-1.494644 0,-1.955582c-0.46093,-0.460938 -1.413185,0.361603 -1.955566,0c-0.6064,-0.404251 -0.573517,-1.349152 -0.977783,-1.955551c-0.255676,-0.383514 -0.565506,-0.771652 -0.977783,-0.977783c-0.291519,-0.145752 -0.832024,0.291519 -0.977776,0c-0.291519,-0.583023 0.46093,-1.494614 0,-1.955551c-0.46093,-0.460938 -1.413193,0.361557 -1.95557,0c-0.606392,-0.404282 -0.462437,-1.440247 -0.977776,-1.955582c-0.230473,-0.230438 -0.832027,0.291519 -0.977779,0c-0.291519,-0.583023 0.36158,-1.413177 0,-1.955566c-0.060692,-2.753174 -2.204559,-0.248978 -2.93335,-0.977753c-0.515339,-0.51535 -0.462448,-1.440231 -0.977779,-1.955582c-0.230469,-0.230469 -0.651859,0 -0.977787,0c-0.32592,-0.651855 -0.462444,-1.440231 -0.977779,-1.955551c-0.230461,-0.230469 -0.977779,0.325912 -0.977779,0c0,-0.325943 1.123543,0.291519 0.977779,0c-0.41227,-0.824539 -1.131023,-1.543304 -1.955563,-1.955582c-0.583035,-0.291504 -1.494633,0.460938 -1.955566,0c-0.46093,-0.460907 0,-1.303711 0,-1.955551c0,-0.325912 0.291519,-0.832016 0,-0.977798c-0.583035,-0.291489 -1.413181,0.361603 -1.955555,0c-0.6064,-0.404251 -0.747318,-1.264145 -0.977791,-1.955551c-0.103069,-0.309189 0.291519,-0.832016 0,-0.977798c-0.583027,-0.291489 -1.494629,0.460938 -1.955559,0c-0.460926,-0.460907 0,-1.303696 0,-1.955551c0,-0.325928 0.230461,-0.747314 0,-0.977783c-0.515339,-0.51532 -1.264164,-0.747299 -1.955566,-0.977768c-0.309196,-0.103058 -0.747311,0.230469 -0.977779,0c-0.515339,-0.51535 -0.46244,-1.440231 -0.977779,-1.955582c-0.230473,-0.230438 -0.747322,0.230469 -0.977783,0c-0.515339,-0.51532 -0.747314,-1.264145 -0.977787,-1.955551c-0.103069,-0.309189 0.291519,-0.832016 0,-0.977783c-0.583038,-0.291534 -1.303711,0 -1.955559,0c-0.664841,0 -1.29073,0 -1.955566,0c-0.32592,0 -0.747311,-0.230469 -0.977779,0c-0.230461,0.230469 0.291519,0.832031 0,0.977783c-0.583038,0.291534 -1.303711,0 -1.955559,0c-0.651859,0 -1.303707,0 -1.95557,0c-0.325928,0 -0.68626,-0.145752 -0.977779,0c-0.41227,0.206131 -0.565517,0.771637 -0.977777,0.977798c-0.145571,0.072784 -1.745049,-0.07019 -1.955568,0c-0.691401,0.230438 -1.264168,0.747314 -1.955557,0.977753c-0.309204,0.103073 -0.651859,0 -0.977789,0c-0.32592,0 -0.747311,-0.230438 -0.977779,0c-0.230471,0.230469 0,0.651886 0,0.977798c-0.65185,0 -1.372532,-0.291534 -1.955559,0c-0.291519,0.145752 0.29151,0.832016 0,0.977783c-4.451149,0 -0.05592,-0.460938 -2.933348,0.977768c-0.291519,0.145782 -0.747318,-0.230469 -0.977789,0c-0.230459,0.230469 0,0.651855 0,0.977783c0,0.325943 0,0.651855 0,0.977798c0,0.325912 0.291519,0.832016 0,0.977753c-0.583027,0.291534 -1.37252,-0.291489 -1.955559,0c-0.583036,0.291534 0.583038,1.664063 0,1.955597c-0.583036,0.291489 -1.37253,-0.291534 -1.955567,0c-0.29151,0.145737 0,0.65184 0,0.977753c0,0.651886 0,1.303726 0,1.955582c0,3.911133 0,7.822235 0,11.733383c0,0.65184 0,1.303696 0,1.955551c0,0.325943 0.23047,0.747314 0,0.977783c-0.515329,0.51532 -1.44022,0.462448 -1.955559,0.977798c-0.23047,0.230438 0,0.65184 0,0.977753c0,0.325943 0,0.651886 0,0.977798c0,3.259277 0,6.518539 0,9.777817c0,0.325912 0,0.651855 0,0.977768c0,0.651886 0.460931,1.494644 0,1.955582c-0.46093,0.460938 -1.37253,-0.291534 -1.955567,0c-0.29151,0.145752 0,0.651855 0,0.977768c0,0.977783 0,1.955582 0,2.933365c0,1.955551 0,3.911102 0,5.866653c0,0.325943 -0.23046,0.74733 0,0.977798c0.23047,0.230469 0.747318,-0.230469 0.977789,0c0.23046,0.230469 -0.230471,0.747314 0,0.977783c0.23046,0.230469 0.747309,-0.230469 0.977778,0c0.23046,0.230469 -0.145764,0.686264 0,0.977798c0.206136,0.412247 0.65185,0.651855 0.977779,0.977768c0.73731,0.737305 1.218258,1.218262 1.955568,1.955582c0.325919,0.325897 0.771644,0.565506 0.977778,0.977753c0.203939,0.407883 -0.227634,1.727951 0,1.955582c0.230461,0.230469 0.74732,-0.230469 0.977779,0c0.230471,0.230469 -0.145754,0.686264 0,0.977768c0.206137,0.412277 0.771654,0.565506 0.977779,0.977783c0.259567,0.519135 -0.259556,1.436432 0,1.955582c0.206137,0.412262 0.771654,0.565506 0.977789,0.977768c0.072781,0.145569 -0.070177,1.745056 0,1.955551c0.32593,0.651886 0.65185,1.303726 0.977779,1.955582c0.32593,0 0.74732,-0.230469 0.977779,0c0.230471,0.230469 -0.103067,0.668579 0,0.977768c0.230471,0.691406 0.74732,1.264175 0.977789,1.955582c0.103058,0.309189 0,0.65184 0,0.977783c0,0.325912 0,0.651825 0,0.977768c0,0.651855 -0.206135,1.337173 0,1.955582c0.072781,0.218323 1.815214,1.674866 1.955559,1.955551c0.145756,0.291519 -0.103069,0.668564 0,0.977768c0.230469,0.691391 0.651859,1.303726 0.977779,1.955582c0.32593,0.65184 0.573523,1.349152 0.977789,1.955551c0.255674,0.383514 0.65185,0.65184 0.977777,0.977783c0.32593,0.325912 0.65185,0.651855 0.977779,0.977798c0.32593,0.325912 0.651859,0.65184 0.977779,0.977753c0.325928,0.325943 0.540506,0.832047 0.977789,0.977798c0.618397,0.206131 1.37252,-0.291534 1.955557,0c0.291519,0.145752 -0.230461,0.747314 0,0.977783c0.230473,0.230469 0.747322,-0.230469 0.977783,0c0.230469,0.230469 -0.230461,0.747299 0,0.977768c0.230469,0.230469 0.651855,0 0.977787,0c0.665466,0 1.290089,0 1.955559,0c0.325928,0 0.747318,0.230469 0.977779,0c0.515339,-0.51532 0.573521,-1.349167 0.977787,-1.955551c0.255676,-0.383514 0.771645,-0.565506 0.977779,-0.977798c0.145756,-0.291489 -0.230469,-0.747284 0,-0.977753c0.230461,-0.230469 0.832027,0.291489 0.977779,0c0.291519,-0.583054 0,-1.303741 0,-1.955582c0,-0.977768 0,-1.955551 0,-2.93335c0,-2.93335 0,-5.866684 0,-8.800034c0,-1.303696 0,-2.607407 0,-3.911133c0,-0.325912 0.230469,-0.747299 0,-0.977768c-0.515339,-0.515335 -1.440231,-0.462433 -1.955559,-0.977783c-0.230469,-0.230469 0,-0.651855 0,-0.977768c0,-0.325928 0,-0.651871 0,-0.977783c0,-1.629639 0,-3.259293 0,-4.888931c0,-0.325912 0.291519,-0.832016 0,-0.977753c-5.214832,0 0.651852,0.65184 -1.955566,-1.955582c-0.46093,-0.460938 -1.494629,0.460922 -1.955559,0c-0.46093,-0.460938 0.46093,-1.494629 0,-1.955566c-0.46093,-0.460922 -1.494637,0.460938 -1.95557,0c-0.46093,-0.460922 0.361591,-1.413162 0,-1.955582c-0.404266,-0.606384 -1.440228,-0.462402 -1.955557,-0.977753c-0.460932,-0.460938 0.46093,-1.494644 0,-1.955551c-0.651861,-0.325943 -1.303709,-0.651886 -1.955568,-0.977798c0,-0.325943 0.230471,-0.747314 0,-0.977783c-0.515339,-0.51535 -1.551302,-0.371384 -1.955557,-0.977768c-0.361589,-0.542374 0,-1.303726 0,-1.955582c0,-1.303696 0,-2.607407 0,-3.911133c0,-0.325912 0.230459,-0.747299 0,-0.977768c-0.830399,-0.830414 -3.483427,-0.641571 -1.955568,-2.933334c1.022711,-1.534088 2.607418,-2.607437 3.911125,-3.911133z" id="path3926"/>
  <path opacity="0.558333" fill="#ac7f0c" filter="url(#filter3946)" d="m650.422974,147.835342c-1.629639,0.325897 -3.259277,0.65184 -4.888916,0.977753c-0.325867,0.325943 -0.540466,0.832047 -0.977783,0.977798c-0.618347,0.206116 -1.32312,-0.158096 -1.955566,0c-4.721619,1.180405 0.048523,0.464661 -2.93335,1.955582c-0.291504,0.145752 -0.651794,0 -0.977783,0c-0.325928,0.325912 -0.594238,0.722092 -0.977722,0.977753c-0.606384,0.404282 -1.303711,0.651855 -1.955566,0.977798c-0.651917,0.325912 -1.303711,0.651855 -1.955627,0.977753c-0.651794,0.325943 -1.349121,0.573547 -1.955505,0.977798c-0.383545,0.255692 -0.651855,0.651855 -0.977844,0.977783c-0.977722,0.977768 -1.782776,2.166321 -2.93335,2.93335c-0.857483,0.571716 -2.0495,0.447495 -2.933289,0.977798c-2.716064,1.629608 -1.629639,3.259247 -4.888916,4.888885c-0.874573,0.437286 -1.993164,-0.268631 -2.93335,0c-1.303711,0.651855 -2.607422,1.303711 -3.911133,1.955551c-0.325928,0.651855 -0.352844,1.580612 -0.977783,1.955597c-1.152344,0.69136 -2.663391,0.478683 -3.911133,0.977753c-0.427917,0.171219 -0.565491,0.771667 -0.977783,0.977798c-0.921875,0.460938 -2.075745,0.406082 -2.93335,0.977783c-0.977722,0.977768 -1.955505,1.955551 -2.93335,2.93335c0,0.325912 0.230469,0.747284 0,0.977753c-0.51532,0.51535 -1.440186,0.462479 -1.955566,0.977798c-0.515259,0.51535 -0.462402,1.440231 -0.977783,1.955582c-0.51532,0.51532 -1.440186,0.462418 -1.955566,0.977768c-0.230469,0.230453 0.195557,0.717041 0,0.977783c-0.829651,1.106232 -1.955505,1.955551 -2.93335,2.93335c-0.325867,0.325912 -0.651794,0.65184 -0.977722,0.977753c-0.325989,0.325943 -0.771667,0.565536 -0.977783,0.977798c-0.145813,0.291519 0.291504,0.832016 0,0.977783c-0.583069,0.291534 -1.372559,-0.291519 -1.955566,0c-0.291504,0.145752 0.230469,0.74733 0,0.977798c-0.515381,0.51532 -1.440247,0.462433 -1.955627,0.977753c-0.230469,0.230469 0.230469,0.74733 0,0.977798c-0.515259,0.51532 -1.349121,0.573517 -1.955505,0.977783c-0.383545,0.255676 -0.565491,0.771637 -0.977783,0.977768c-0.291504,0.145782 -0.832031,-0.291504 -0.977783,0c-0.291504,0.583054 0.361572,1.413208 0,1.955582c-0.404297,0.606384 -1.440247,0.462448 -1.955566,0.977768c-0.230469,0.230469 0.230469,0.747314 0,0.977783c-0.515381,0.51535 -1.518311,0.394745 -1.955566,0.977798c-0.618408,0.824539 -0.516846,2.011459 -0.977783,2.933334c-0.412292,0.824539 -1.543274,1.131012 -1.955566,1.955551c-0.145752,0.291534 0,0.651855 0,0.977798c0,0.325912 0.291504,0.832016 0,0.977768c-1.865601,0.9328 -1.884216,-1.120499 -2.933289,0.977783c-0.145813,0.291534 0,0.651855 0,0.977798c0,0.977783 0,1.955551 0,2.933334c0,0.325912 0.291443,0.832016 0,0.977798c-0.583069,0.291489 -1.372559,-0.291534 -1.955627,0c-0.291504,0.145737 0,0.65184 0,0.977753c0,0.651855 0,1.303711 0,1.955551c0,0.325943 -0.230469,0.74733 0,0.977798c0.230469,0.230469 0.747314,-0.230469 0.977783,0c0.230469,0.230469 0,0.651855 0,0.977783c0,0.325943 0,0.651855 0,0.977798c0,4.562988 0,9.125946 0,13.688934c0,0.977783 0,1.955551 0,2.933334c0,0.325943 0,0.651855 0,0.977798c0,0.325943 -0.145752,0.686264 0,0.977753c0.206116,0.412292 0.865967,0.530624 0.977844,0.977798c0.237122,0.948578 0,1.955582 0,2.933334c0,0.325943 -0.145813,0.686264 0,0.977798c0.206116,0.412262 0.771606,0.565506 0.977722,0.977798c0.072815,0.145538 -0.07019,1.74501 0,1.955551c0.230469,0.691391 0.747314,1.264175 0.977783,1.955551c0.103088,0.309189 -0.230469,0.747314 0,0.977783c0.230469,0.230469 0.832031,-0.291519 0.977783,0c0.291504,0.583023 0,1.303711 0,1.955582c0,0.325882 -0.145752,0.686264 0,0.977768c0.206177,0.412247 0.771667,0.565506 0.977783,0.977753c0.145752,0.291565 -0.145752,0.686264 0,0.977829c1.080994,2.16188 0.606873,0.303436 1.955566,0.977753c0.412292,0.206131 0.651855,0.651886 0.977783,0.977768c0.651794,0.651886 1.303711,1.303757 1.955566,1.955582c0.325867,0.325943 0.565552,0.771637 0.977783,0.977768c0.291504,0.145798 0.668579,-0.103043 0.977783,0c0.691406,0.230469 1.26416,0.747345 1.955566,0.977814c0.618347,0.206131 1.337158,-0.206131 1.955566,0c0.691406,0.230469 1.27887,0.707123 1.955505,0.977753c0.95697,0.382782 2.011536,0.516846 2.93335,0.977783c0.412354,0.206116 0.651917,0.651855 0.977844,0.977814c1.303711,0.651825 2.557739,1.414185 3.911072,1.955505c0.302612,0.121063 0.651917,0 0.977783,0c0.977844,0 1.955566,0 2.933411,0c0.651794,0 1.337158,-0.206116 1.955505,0c0.437317,0.145813 0.53064,0.866058 0.977783,0.977844c0.948608,0.237122 1.955566,0 2.93335,0c0.977783,0 1.955566,0 2.933411,0c0.651794,0 1.413147,0.361542 1.955505,0c0.606384,-0.404297 0.462463,-1.440247 0.977844,-1.955597c2.291382,-2.291382 1.949463,0.197968 4.888855,-0.977753c0.855896,-0.342377 1.1651,-1.481293 1.955566,-1.955597c0.883789,-0.530289 2.011475,-0.516815 2.93335,-0.977753c4.944824,-3.296555 0.806458,-0.909286 5.866699,-2.933334c0.676697,-0.270706 1.240906,-0.834854 1.955566,-0.977829c0.958801,-0.191711 1.955505,0 2.93335,0c0.977783,0 1.955505,0 2.93335,0c0.651794,0 1.413147,0.361618 1.955505,0c0.606384,-0.404221 0.462463,-1.440231 0.977844,-1.955521c0.230469,-0.230469 0.651794,0 0.977722,0c0.325989,0 0.651917,0 0.977783,0c0.651855,0 1.413208,0.361557 1.955566,0c0.606384,-0.404282 0.462463,-1.440231 0.977783,-1.955582c0.230469,-0.230469 0.651855,0 0.977844,0c0.651794,0 1.494568,0.460938 1.955505,0c0.460938,-0.460938 -0.206116,-1.337143 0,-1.955551c-0.365479,-2.130142 1.629639,-0.325943 1.955566,-0.977798c0.291504,-0.583023 -0.206116,-1.337173 0,-1.955582c1.017334,-3.051941 0.651917,0.325943 1.955566,-0.977753c0.325928,-0.651855 0.651855,-1.303711 0.977783,-1.955551c0.325928,0 0.747314,0.230438 0.977783,0c3.81604,-3.816055 -0.226379,-0.525131 0.977783,-2.93335c0.206116,-0.412292 0.771667,-0.565536 0.977783,-0.977798c0.145752,-0.291519 -0.145752,-0.686264 0,-0.977783c3.527832,-7.055695 0.482666,1.726624 3.911072,-6.844452c0.121094,-0.302628 -0.145691,-0.686295 0,-0.977798c0.525574,-1.051071 1.351013,-1.925644 1.955627,-2.933334c0.374939,-0.624939 0.462463,-1.440231 0.977722,-1.955582c4.615723,-4.615631 1.095215,0.247681 5.866699,-2.93335c0.27124,-0.180786 -0.230469,-0.747314 0,-0.977753c0.230469,-0.230469 0.747375,0.230438 0.977844,0c1.123474,-1.12355 0.977722,-1.729263 0.977722,-2.93335c0,-0.325943 -0.145691,-0.686264 0,-0.977798c0.206177,-0.412277 0.832031,-0.540512 0.977783,-0.977783c0.206116,-0.618378 -0.158081,-1.323166 0,-1.955551c2.269714,-4.539413 0.083008,0.56279 0.977844,-3.911133c-0.224426,-1.963531 1.529846,-3.186142 1.955505,-4.888901c0.158142,-0.632416 -0.158081,-1.323166 0,-1.955582c0.176758,-0.707031 0.707092,-1.278885 0.977844,-1.955551c0.382751,-0.95697 0.516785,-2.011475 0.977722,-2.93335c0.206116,-0.412277 0.565552,-0.771637 0.977783,-0.977783c0.291565,-0.145752 0.832092,0.291519 0.977844,0c0.291443,-0.583023 0,-1.303711 0,-1.955551c0,-0.325912 0,-0.651855 0,-0.977798c0,-1.629639 0,-3.259247 0,-4.888901c0,-0.977783 -0.237183,-1.984756 0,-2.933334c0.111755,-0.447174 0.771606,-0.565506 0.977722,-0.977798c0.145752,-0.291489 0,-0.651855 0,-0.977753c0,-0.325943 0,-0.651886 0,-0.977798c0,-0.977783 0,-1.955551 0,-2.93335c0,-0.325928 0.230469,-0.747314 0,-0.977783c-0.51532,-0.51532 -1.440247,-0.462448 -1.955566,-0.977798c-0.230408,-0.230469 0.230469,-0.747284 0,-0.977753c-1.190918,-1.190918 -2.184509,-0.458008 -2.93335,-1.955582c-0.145752,-0.291504 0,-0.651855 0,-0.977768c0,-0.651871 0,-1.303726 0,-1.955582c0,-1.629608 0,-3.259247 0,-4.888901c0,-0.977783 0.437317,-2.058792 0,-2.933334c-0.325867,-0.651855 -1.440186,-0.462448 -1.955505,-0.977798c-0.230469,-0.230469 0,-0.65184 0,-0.977753c-0.651917,-0.325943 -1.440247,-0.462479 -1.955627,-0.977798c-0.460938,-0.460938 0.460938,-1.494644 0,-1.955582c-0.51532,-0.51532 -1.440186,-0.462418 -1.955566,-0.977768c-0.515259,-0.515335 -0.747253,-1.264175 -0.977722,-1.955582c-0.103088,-0.309189 0.291443,-0.832001 0,-0.977753c-0.583069,-0.291534 -1.303711,0 -1.955627,0c-0.325867,0 -0.651794,0 -0.977722,0c-0.325989,0 -0.832031,0.291519 -0.977783,0c0,-5.214844 0.651794,0.651855 -1.955566,-1.955551c-0.460938,-0.460938 0.460938,-1.494644 0,-1.955582c-0.460938,-0.460938 -1.303711,0 -1.955627,0c-0.977722,0 -1.955505,0 -2.933289,0c-0.325928,0 -0.651855,0 -0.977783,0c-0.325928,0 -0.668579,0.103058 -0.977783,0c-1.665161,-0.555023 -3.259277,-1.303711 -4.888916,-1.955551z" id="path3932"/>
  <path fill="url(#linearGradient4376)" filter="url(#filter3980)" d="m10.380969,147.853058c4.021871,-8.912369 10.964068,-20.741898 20.741879,-20.741898c15.644508,0 21.226566,23.102478 33.187019,33.187027c17.696754,14.921173 37.160622,27.681412 56.694473,40.100998c22.820259,14.509033 45.540459,29.748169 70.522377,40.100952c30.474777,12.629105 62.695648,22.053787 95.412674,26.273056c37.488678,4.834625 76.342224,6.12149 113.388947,-1.382813c23.908936,-4.843079 46.052979,-16.518677 67.756805,-27.655838c20.82196,-10.684601 41.160339,-22.746506 59.460083,-37.335358c20.388123,-16.25383 39.079163,-34.906601 55.311646,-55.311707c10.828491,-13.611893 20.334045,-28.471863 27.655884,-44.249329c10.799561,-23.271469 1.946655,-59.383896 23.507446,-73.287992c10.138428,-6.538034 29.561707,-6.08345 35.952576,4.148367c4.402039,7.047741 -7.451599,15.241032 -8.296753,23.507488c-1.040833,10.181248 2.362061,20.344204 4.148376,30.421413c2.635437,14.866791 6.350769,29.522316 9.679565,44.249359c3.130554,13.849945 9.990356,27.287781 9.679504,41.483765c-0.523743,23.927155 -8.156189,47.990601 -19.35907,69.139587c-12.707825,23.990097 -31.941101,44.549393 -52.546082,62.225662c-29.51947,25.32373 -64.422058,44.171021 -99.561035,60.842834c-25.15564,11.935181 -51.611206,21.74115 -78.819122,27.655823c-24.874786,5.407501 -50.602722,7.410889 -76.053589,6.913971c-32.067505,-0.626129 -64.152679,-5.266602 -95.412628,-12.44516c-44.039078,-10.113129 -88.831772,-21.413696 -128.599686,-42.866547c-26.863098,-14.491302 -51.770882,-33.7547 -71.905186,-56.694458c-18.407257,-20.972076 -32.224541,-46.109818 -42.86656,-71.905197c-5.798309,-14.054626 -9.676467,-29.108917 -11.062336,-44.249359c-0.673561,-7.35849 -1.656615,-15.389435 1.382791,-22.124649z" id="path3950" clip-path="url(#clipPath3986)"/>
  <path fill="#f2d87e" filter="url(#filter3994)" d="m296.466003,225.080093c-2.607422,0 -5.214844,0 -7.822266,0c-0.651855,0 -1.413177,0.361603 -1.955566,0c-0.606384,-0.404251 -0.462433,-1.440231 -0.977783,-1.955551c-0.227631,-0.227631 -1.547668,0.203949 -1.955536,0c-1.051086,-0.525528 -1.882263,-1.430038 -2.93335,-1.955582c-0.291534,-0.145752 -0.651855,0 -0.977783,0c-0.325928,0 -0.651855,0 -0.977783,0c-0.325928,0 -0.747314,0.230469 -0.977783,0c-1.190918,-1.190918 -0.458008,-2.18457 -1.955566,-2.933334c-0.298645,-0.149323 -1.722687,0.155258 -1.955566,0c-0.767029,-0.511368 -1.188538,-1.444199 -1.955566,-1.955566c-0.271179,-0.180771 -0.651825,0 -0.977783,0c-0.977753,0 -1.955536,0 -2.93335,0c-0.325897,0 -0.747314,0.230469 -0.977783,0c-2.269684,-4.539413 0.645813,-0.16597 -2.93335,-1.955551c-0.824493,-0.412277 -1.099609,-1.613205 -1.955536,-1.955582c-1.454803,-0.907837 -3.375854,0.60524 -4.888916,0c-1.091095,-0.436417 -1.882263,-1.430008 -2.93335,-1.955551c-0.291504,-0.145767 -0.651871,0 -0.977768,0c-0.325928,0 -0.651871,0 -0.977798,0c-1.303696,0 -2.607422,0 -3.911118,0c-0.325928,0 -0.747314,0.230469 -0.977798,0c-0.515335,-0.51535 -0.462418,-1.440231 -0.977768,-1.955582c-0.230469,-0.230438 -0.651855,0 -0.977783,0c-0.325928,0 -0.651855,0 -0.977783,0c-1.629639,0 -3.259277,0 -4.888901,0c-0.325943,0 -0.74733,0.230469 -0.977798,0c-0.51532,-0.51532 -0.325912,-1.629608 -0.977768,-1.955551c-0.874557,-0.437271 -1.955566,0 -2.93335,0c-2.281494,0 -4.562988,0 -6.844482,0c-0.977768,0 -1.955551,0 -2.933334,0c-0.325928,0 -0.747314,0.230469 -0.977783,0c-0.515335,-0.51535 -0.371384,-1.5513 -0.977768,-1.955551c-0.542374,-0.361588 -1.303726,0 -1.955566,0c-0.977798,0 -1.955566,0 -2.933365,0c-4.237045,0 -8.474091,0 -12.711151,0c-1.629639,0 -3.285553,0.291504 -4.888916,0c-2.028076,-0.368744 -3.833389,-1.616669 -5.866684,-1.955582c-1.928955,-0.321487 -3.937714,0.321503 -5.866684,0c-16.331238,-2.721878 2.124039,-1.233078 -9.777832,-2.93335c-0.967941,-0.138275 -2.005722,0.309219 -2.933319,0c-1.114853,-0.371597 -1.882263,-1.430008 -2.933365,-1.955551c-0.291504,-0.145752 -0.747299,0.230469 -0.977768,0c-0.515335,-0.51535 -0.462448,-1.440231 -0.977798,-1.955551c-0.51532,-0.51535 -1.440216,-0.462448 -1.955551,-0.977783c-0.830963,-0.830963 -1.430023,-1.882278 -1.955566,-2.93335c-0.145752,-0.291534 0.291519,-0.832016 0,-0.977798c-0.583038,-0.291489 -1.494629,0.460938 -1.955551,0c-0.460938,-0.460907 0.361572,-1.413162 0,-1.955551c-0.060699,-2.753174 -2.204559,-0.248978 -2.933365,-0.977783c-0.515335,-0.51532 -0.65184,-1.303711 -0.977768,-1.955551c-0.651855,0 -1.494629,0.460938 -1.955566,0c-0.460922,-0.460938 0.460938,-1.494644 0,-1.955551c-0.460922,-0.460938 -1.413177,0.361557 -1.955566,0c-0.6064,-0.404282 -0.573517,-1.349197 -0.977783,-1.955582c-0.325928,-0.325912 -0.651855,-0.651855 -0.977783,-0.977798c-0.325928,0 -0.747314,0.230469 -0.977768,0c-0.325943,-0.651855 -0.651871,-1.303696 -0.977798,-1.955551c-0.325928,0 -0.747299,0.230469 -0.977768,0c-0.515335,-0.51532 -0.462448,-1.440231 -0.977798,-1.955551c-0.515335,-0.51535 -1.26416,-0.74733 -1.955551,-0.977798c-0.309204,-0.103058 -0.832031,0.291534 -0.977783,0c-0.291519,-0.583023 0.460938,-1.494614 0,-1.955551c-0.460922,-0.460938 -1.413177,0.361572 -1.955551,0c-0.606415,-0.404282 -0.462463,-1.440231 -0.977783,-1.955582c-0.460938,-0.460907 -1.494644,0.460938 -1.955566,0c-0.51535,-0.51532 -0.462448,-1.440201 -0.977798,-1.955551c-0.230469,-0.230469 -0.65184,0 -0.977768,0c-0.325928,0 -0.651855,0 -0.977798,0c-4.888885,0 -9.777802,0 -14.666702,0c-5.214836,0 0.651855,0.651855 -1.955566,-1.955551c-1.483711,-1.483719 -2.154213,0.588196 -2.93335,0.977768c-0.291519,0.145767 -0.651848,0 -0.977776,0c-1.303711,0 -2.607422,0 -3.911133,0c-0.651855,0 -1.372528,-0.291504 -1.955566,0c-0.291512,0.145767 0,0.651871 0,0.977783c0,1.629639 0,3.259277 0,4.888901c0,0.325943 0,0.65184 0,0.977783c0,0.651855 -0.206123,1.337173 0,1.955582c0.64859,1.945724 0.912598,0.456268 1.955566,0.977768c0.412277,0.206131 0.565514,0.771667 0.977791,0.977783c0.291519,0.145752 0.747314,-0.230469 0.977783,0c0.230461,0.230469 -0.230469,0.74733 0,0.977768c0.230461,0.230469 0.747307,-0.230438 0.977783,0c0.230461,0.230469 -0.230476,0.74733 0,0.977798c0.227631,0.227631 1.547676,-0.203949 1.955551,0c4.069305,2.034653 -1.04528,-0.067474 0.977791,1.955582c0.515335,0.51532 1.264153,0.747284 1.955559,0.977753c0.309204,0.103073 0.651863,0 0.977776,0c0.325935,0 0.747322,-0.230469 0.977791,0c0.230461,0.230469 -0.230469,0.74733 0,0.977798c0.230461,0.230469 0.686256,-0.145782 0.977776,0c0.412277,0.206116 0.565514,0.771637 0.977791,0.977783c1.348694,0.674332 0.874588,-1.184158 1.955566,0.977768c0.145752,0.291519 -0.230469,0.747314 0,0.977783c0.227631,0.227631 1.547668,-0.203934 1.955551,0c0.412277,0.206131 0.565521,0.771637 0.977768,0.977798c0.291534,0.145752 0.686279,-0.145782 0.977798,0c0.824539,0.412247 1.131027,1.543259 1.955566,1.955551c0.291504,0.145752 0.65184,0 0.977768,0c0.651855,0.325943 1.349182,0.573517 1.955566,0.977783c0.383514,0.255676 0.651855,0.651855 0.977783,0.977768c0.651855,0.651855 1.303711,1.303726 1.955566,1.955582c0.325928,0.325912 0.565506,0.771637 0.977768,0.977768c0.291534,0.145767 0.74733,-0.230469 0.977798,0c0.230469,0.230469 -0.230469,0.747314 0,0.977783c0.230469,0.230469 0.686249,-0.145752 0.977768,0c2.161942,1.080978 0.303436,0.606873 0.977798,1.955551c0.206131,0.412292 0.65184,0.651886 0.977783,0.977798c2.241867,2.241913 -0.618423,-0.412262 2.933334,1.955551c0.383514,0.255692 0.651855,0.651855 0.977783,0.977783c1.303711,0.977798 2.486572,2.141922 3.911133,2.93335c1.534286,0.852402 3.319031,1.170624 4.888901,1.955551c1.29985,0.649933 0.655701,1.305649 1.955566,1.955582c0.291519,0.145752 0.686264,-0.145767 0.977768,0c0.824554,0.412262 1.131027,1.543304 1.955566,1.955551c0.921875,0.460938 2.01149,0.516861 2.93335,0.977798c0.059052,0.02951 1.840851,1.869537 1.955566,1.955551c0.940109,0.705078 1.882248,1.430038 2.93335,1.955582c0.291504,0.145752 0.747299,-0.230469 0.977768,0c0.230469,0.230438 -0.230469,0.747299 0,0.977768c0.230469,0.230469 0.74733,-0.230469 0.977798,0c0.230469,0.230469 -0.230469,0.747314 0,0.977783c2.023056,2.023056 -0.079102,-3.091522 1.955566,0.977768c0.145752,0.291519 -0.145767,0.686295 0,0.977783c0.206131,0.412292 0.65184,0.651855 0.977768,0.977798c0.325928,0.325943 0.651855,0.65184 0.977783,0.977783c0.325928,0.325912 0.651871,0.651855 0.977768,0.977768c0.325943,0.325943 0.565521,0.771667 0.977798,0.977783c0.291504,0.145752 0.651855,0 0.977768,0c0.651855,0 1.303726,0 1.955582,0c1.303696,0 2.607407,0 3.911118,0c1.303711,0 2.632736,-0.255692 3.911133,0c0.451981,0.090424 0.530609,0.865982 0.977768,0.977798c0.948593,0.237137 1.968887,-0.160751 2.93335,0c1.016647,0.169434 1.922684,0.77565 2.93335,0.977753c0.639191,0.127853 1.337158,-0.206116 1.955566,0c0.437256,0.145782 0.530609,0.866028 0.977768,0.977798c0.948578,0.237137 1.955551,0 2.93335,0c1.303696,0 2.607422,0 3.911118,0c0.977798,0 1.955566,0 2.93335,0c0.325928,0 0.686264,-0.145752 0.977783,0c0.824524,0.412262 1.131027,1.543304 1.955551,1.955551c0.291534,0.145782 0.651871,0 0.977783,0c0.325943,0 0.651871,0 0.977783,0c0.325928,0 0.686279,-0.145752 0.977783,0c0.412292,0.206161 0.582535,0.740646 0.977798,0.977798c1.249863,0.749924 2.645584,1.232391 3.911118,1.955582c1.020309,0.583023 1.882263,1.430008 2.933334,1.955551c4.726334,2.363159 1.159805,0.231949 4.888916,0.977783c1.010651,0.202118 1.916687,0.808334 2.93335,0.977768c0.964478,0.160751 1.955566,0 2.933334,0c0.325943,0 1.303726,0 0.977783,0c-0.65184,0 -1.494614,0.460938 -1.955551,0c-0.460938,-0.460938 0,-1.303711 0,-1.955551c0,-0.651855 0,-1.303741 0,-1.955551c0,-0.325943 0.291504,-0.832047 0,-0.977798c-0.583038,-0.291519 -1.494629,0.460938 -1.955566,0c0,-3.819672 0.583038,-0.39476 -1.955551,-2.933334c-0.446274,-0.446289 0.503571,-1.703796 0,-1.955597c-0.583038,-0.291489 -1.303726,0 -1.955582,0c-0.325928,-0.65184 -0.462448,-1.440231 -0.977783,-1.955551c-0.230469,-0.230469 -0.651855,0 -0.977783,0c-0.325912,0 -0.65184,0 -0.977783,0c-0.325912,0 -0.747314,0.230469 -0.977783,0c-0.515335,-0.51535 -0.462433,-1.440231 -0.977768,-1.955551c-0.230469,-0.230469 -0.651871,0 -0.977798,0c-0.65184,-0.65184 -1.444183,-1.188522 -1.955551,-1.955582c-0.180801,-0.271164 0.291519,-0.832016 0,-0.977783c-0.583038,-0.291504 -1.494629,0.460968 -1.955566,0c-0.460938,-0.460907 0.361588,-1.413177 0,-1.955551c-0.060684,-2.753189 -2.204544,-0.248993 -2.93335,-0.977768c-0.51532,-0.51535 -0.65184,-1.303726 -0.977783,-1.955582c-0.325912,-0.651855 -0.747314,-1.264145 -0.977783,-1.955551c-0.103058,-0.309189 0.230469,-0.74733 0,-0.977798c-0.515335,-0.51532 -1.440216,-0.462433 -1.955551,-0.977783c-0.51535,-0.51532 -0.462448,-1.440201 -0.977783,-1.955551c-0.230469,-0.230469 -0.651855,0 -0.977783,0c-0.325943,-0.651855 -0.747314,-1.26416 -0.977768,-1.955551c-0.103088,-0.309219 0.291504,-0.832047 0,-0.977798c-0.583038,-0.291519 -1.303726,0 -1.955566,0c-0.325928,0 -0.977798,0.325943 -0.977798,0c0,-0.325912 0.706604,-0.180786 0.977798,0c0.767014,0.511368 1.16507,1.481262 1.955566,1.955551c0.883774,0.530304 2.038467,0.466431 2.933334,0.977798c1.414917,0.808517 2.427567,2.259003 3.911118,2.933334c2.160126,0.981873 4.555298,1.331268 6.844467,1.955582c1.296494,0.353561 2.577682,0.811111 3.911133,0.977768c1.293655,0.161697 2.615402,-0.143951 3.911148,0c1.651733,0.183533 3.243683,0.742737 4.888885,0.977783c0.645309,0.092148 1.303726,0 1.955566,0c2.281494,0 4.562988,0 6.844467,0c1.303726,0 2.607422,0 3.911133,0c0.325928,0 0.747314,-0.230453 0.977783,0c0.230469,0.230469 -0.230469,0.74733 0,0.977798c0.230469,0.230438 0.651855,0 0.977783,0c0.325912,0 0.651855,0 0.977783,0c0.325928,0 0.74733,-0.230469 0.977783,0c0.230453,0.230438 -0.230453,0.747299 0,0.977768c0.230453,0.230469 0.747314,-0.230469 0.977768,0c0.230469,0.230469 -0.230453,0.747314 0,0.977783c0.230469,0.230469 0.686279,-0.145752 0.977798,0c0.412262,0.206131 0.565506,0.771667 0.977768,0.977768c0.104401,0.052185 1.75737,-0.049545 1.955582,0c0.999908,0.249985 1.933441,0.727829 2.933319,0.977783c0.316193,0.079117 0.651886,0 0.977814,0c0.325928,0 0.651855,0 0.977783,0c1.629639,0 3.259277,0 4.888916,0c0.325897,0 0.651855,0 0.977753,0c0.325928,0 0.68631,-0.145752 0.977783,0c0.412292,0.206161 0.565521,0.771667 0.977814,0.977798c0.291504,0.145752 0.651825,0 0.977783,0c0.648895,0 1.30661,0 1.955536,0c0.325928,0 0.668579,-0.103073 0.977814,0c0.691376,0.230469 1.26413,0.747314 1.955536,0.977783c0.309204,0.103073 0.747345,-0.230469 0.977783,0c0.230469,0.230469 -0.230438,0.747299 0,0.977768c0.230469,0.230469 0.747314,-0.230469 0.977783,0c0.230469,0.230469 -0.230469,0.747314 0,0.977783c0.230469,0.230469 0.651855,0 0.977783,0c0.648895,0 1.306671,0 1.955566,0c3.259277,0 6.518555,0 9.777802,0c0.325958,0 0.651855,0 0.977814,0c0.325897,0 0.747314,-0.230469 0.977783,0c0.230438,0.230469 -0.325958,0.977798 0,0.977798c1.661896,0 3.259247,-0.651886 4.888885,-0.977798z" id="path3992"/>
  <path fill="#b9a02a" filter="url(#filter4024)" d="m21.709337,136.101959c1.053328,3.090378 0.977789,3.392654 0.977789,5.866684c0,0.325943 -0.103067,0.668579 0,0.977798c0.230461,0.691376 0.747309,1.264175 0.977779,1.955551c0.103067,0.309219 -0.145763,0.686264 0,0.977798c0.206135,0.412247 0.771643,0.565506 0.977779,0.977783c0.203939,0.407883 -0.227634,1.727921 0,1.955551c0.230469,0.230469 0.747318,-0.230469 0.977779,0c0.230471,0.230469 -0.145754,0.686264 0,0.977798c3.242897,3.242889 -0.460932,-0.921875 0.977777,1.955551c0.412271,0.824539 1.543297,1.131012 1.955568,1.955551c0.145754,0.291519 -0.145756,0.686264 0,0.977783c2.237465,4.47493 -0.405262,-4.149124 1.955568,2.93335c0.103058,0.309219 -0.230471,0.74733 0,0.977798c0.230461,0.230453 0.747311,-0.230469 0.977777,0c0.230461,0.230453 0,0.65184 0,0.977753c0,0.651886 -0.206135,1.337173 0,1.955582c0.145756,0.437271 0.771645,0.565506 0.977779,0.977768c0.145756,0.291519 0,0.65184 0,0.977783c0,0.977798 0,1.955582 0,2.93335c0,0.325943 -0.145752,0.686264 0,0.977783c0.206135,0.412262 0.771645,0.565506 0.977783,0.977798c0.14576,0.291489 0,0.651855 0,0.977768c0,0.65184 0,1.303726 0,1.955551c0,0.325928 -0.103069,0.668594 0,0.977783c0.230469,0.691406 0.747314,1.264175 0.977787,1.955582c0.103058,0.309189 0,0.651855 0,0.977768c0,0.325943 0,0.65184 0,0.977783c0,1.303711 0,2.607437 0,3.911133c0,0.651855 0.46093,1.494629 0,1.955566c-0.460941,0.460922 -1.303707,0 -1.95557,0c-0.325928,0 -0.747318,-0.230469 -0.977779,0c-0.230467,0.230469 0.291519,0.832001 0,0.977783c-0.583036,0.291504 -1.303707,0 -1.955566,0c-0.32592,0 -0.65185,0 -0.977779,0c-0.32593,0 -0.747318,-0.230469 -0.977779,0c-0.230469,0.230469 0.291519,0.832016 0,0.977798c-0.583036,0.291489 -1.303709,0 -1.955566,0c-0.32592,0 -0.832016,0.291489 -0.977779,0c-0.291519,-0.583054 0,-1.303741 0,-1.955582c0,-1.955566 0,-3.911148 0,-5.866699c0,-0.65184 0,-1.303696 0,-1.955551c0,-0.325943 0.230469,-0.747314 0,-0.977783c-0.515339,-0.51535 -1.264168,-0.74733 -1.955559,-0.977798c-0.309204,-0.103058 -0.832026,0.291534 -0.977789,0c-0.291519,-0.583023 0,-1.303696 0,-1.955551c0,-0.651855 0,-1.303696 0,-1.955551c0,-2.607437 0,-5.214874 0,-7.822266c0,-0.651855 0,-1.303711 0,-1.955551c0,-0.325943 0.291519,-0.832047 0,-0.977798c-0.583036,-0.291519 -1.494629,0.460938 -1.955559,0c-0.46093,-0.460938 0,-1.303696 0,-1.955551c0,-0.651855 0,-1.303726 0,-1.955582c0,-2.93335 0,-5.866684 0,-8.800034c0,-0.651855 0,-1.303696 0,-1.955551c0,-0.651855 -0.179081,-1.328781 0,-1.955582c0.482178,-1.687637 1.303709,-3.259262 1.955559,-4.888901z" id="path3998"/>
  <path fill="#000000" stroke="#000000" stroke-width="1px" filter="url(#filter3894)" d="m43.15942,112.696358c-1.637974,-4.380966 -12.625416,-1.234138 -12.711178,-1.405464c-0.665564,-1.33094 -2.110043,-1.725883 -3.361124,-1.100594c-1.790329,0.895378 -0.04501,2.428604 -1.099985,3.483673c-1.749672,1.750069 -4.044209,3.066475 -5.744421,4.767189c-1.698315,1.697792 -4.593225,-0.113251 -5.805627,1.099586c-3.534505,3.534973 2.574004,11.433495 -3.727786,12.833138c-2.841662,0.63208 -1.166898,12.722809 -0.611117,12.834106c1.650701,0.330078 3.479186,-0.306824 5.133352,0.061005c2.084432,0.462677 5.695811,-2.232101 7.333398,-3.422699c2.263948,-1.646484 -1.056038,-4.077026 0.305487,-5.438934c1.532852,-1.532272 5.287064,-0.879868 6.783424,-2.749954c1.885187,-2.355988 3.187084,-3.820511 4.705517,-6.47757c2.286694,-4.001526 13.036991,-8.127914 8.80006,-14.483482l0,0z" id="path3880"/>
  <path fill="#743e03" filter="url(#filter4114)" d="m569.267029,229.968994c-6.148682,-0.910965 3.141663,8.169952 -0.069458,1.772202c-0.167908,-0.575073 -0.182495,-1.216766 0.069458,-1.772202z" id="path4052"/>
  <path opacity="0.933333" fill="#743e03" filter="url(#filter4133)" id="path4118" d="m532.111328,241.946823c0,0.675003 -0.437744,1.222229 -0.977722,1.222229c-0.540039,0 -0.977844,-0.547226 -0.977844,-1.222229c0,-0.675018 0.437805,-1.222244 0.977844,-1.222244c0.539978,0 0.977722,0.547226 0.977722,1.222244z"/>
  <path fill="#936211" filter="url(#filter4145)" d="m605.967773,232.267624c-1.581055,0.697357 -0.929321,4.165085 0.710754,3.477249c1.588745,-0.120132 1.563843,-3.516083 -0.121765,-3.28302c-0.198242,-0.051376 -0.397278,-0.103745 -0.588989,-0.194229z" id="path4127"/>
  <path fill="#743e03" filter="url(#filter4114)" id="path4158" d="m538.404297,225.175385c6.148743,0.910995 -1.186035,-8.65889 2.025085,-2.261078c0.167908,0.575073 -1.773071,1.705612 -2.025085,2.261078z"/>
  <path fill="#af9926" filter="url(#filter4184)" d="m613.27832,51.057613c-3.108521,7.59449 -4.506775,12.758286 -9.646851,17.75745c0.360413,9.403793 1.229431,8.85601 -2.956421,15.867599c-6.593506,4.202568 -16.406067,19.052139 -20.606323,32.011055c4.518982,10.769264 6.541931,-3.559586 11.917786,-8.763962c4.572693,0.521164 9.751709,11.356865 12.095398,2.655815c6.767517,-7.266006 17.999512,-45.959106 19.154602,-54.812279c0.606567,-7.778316 -14.4505,12.491837 -13.405518,4.788284c0.762268,-3.291603 1.955994,-6.475235 3.447327,-9.503963z" id="path4160"/>
 </g>
</svg>