<?xml version="1.0" encoding="UTF-8" standalone="no"?>
<!-- Created with Inkscape (http://www.inkscape.org/) -->
<svg xmlns:rdf="http://www.w3.org/1999/02/22-rdf-syntax-ns#" xmlns="http://www.w3.org/2000/svg" height="500" width="500" version="1.1" xmlns:cc="http://creativecommons.org/ns#" xmlns:dc="http://purl.org/dc/elements/1.1/">
 <defs>
  <filter id="filter3803" height="1.9352365" width="1.2928362" color-interpolation-filters="sRGB" y="-0.46761823" x="-0.14641809">
   <feGaussianBlur stdDeviation="17.2556"/>
  </filter>
  <filter id="filter3803-3" width="1.2928362" y="-0.46761823" x="-0.14641809" height="1.9352365" color-interpolation-filters="sRGB">
   <feGaussianBlur stdDeviation="17.2556"/>
  </filter>
  <filter id="filter3803-1" height="1.9352365" width="1.2928362" color-interpolation-filters="sRGB" y="-0.46761823" x="-0.14641809">
   <feGaussianBlur stdDeviation="17.2556"/>
  </filter>
  <filter id="filter3803-1-1" height="1.9352365" width="1.2928362" color-interpolation-filters="sRGB" y="-0.46761823" x="-0.14641809">
   <feGaussianBlur stdDeviation="17.2556"/>
  </filter>
  <filter id="filter3803-3-6" width="1.2928362" y="-0.46761823" x="-0.14641809" height="1.9352365" color-interpolation-filters="sRGB">
   <feGaussianBlur stdDeviation="17.2556"/>
  </filter>
  <filter id="filter3803-1-1-6" height="1.9352365" width="1.2928362" color-interpolation-filters="sRGB" y="-0.46761823" x="-0.14641809">
   <feGaussianBlur stdDeviation="17.2556"/>
  </filter>
  <filter id="filter3803-1-1-6-6" height="1.9352365" width="1.2928362" color-interpolation-filters="sRGB" y="-0.46761823" x="-0.14641809">
   <feGaussianBlur stdDeviation="17.2556"/>
  </filter>
 </defs>
 <metadata>
  <rdf:RDF>
   <cc:Work rdf:about="">
    <dc:format>image/svg+xml</dc:format>
    <dc:type rdf:resource="http://purl.org/dc/dcmitype/StillImage"/>
    <dc:title/>
   </cc:Work>
  </rdf:RDF>
 </metadata>
 <g stroke-width="0" stroke-miterlimit="4" transform="translate(0,-552.36218)">
  <rect style="enable-background:accumulate;color:#000000;" fill-rule="nonzero" fill-opacity="0.7451" height="500" width="500" y="552.36" x="0.0000022522" fill="#5178ff"/>
  <g transform="matrix(1.4815426,0,0,1.4103614,27.784416,-218.47937)">
   <path d="m-7.5117,497.59c-6.7671,0-12.589,7.272-15.279,17.759-2.9115-0.91168-5.9654-1.3976-9.1224-1.3976-19.47,0-35.25,18.49-35.25,41.296s15.78,41.279,35.25,41.279c3.5312,0,6.9341-0.6067,10.151-1.7384,6.1102,5.7877,15.76,9.5444,26.616,9.5444,14.736,0,27.234-6.8904,31.691-16.447,26.859-1.1488,48.156-17.24,48.156-36.933,0-20.439-22.937-37.001-51.228-37.001-4.8386,0-9.51,0.49171-13.947,1.3976,0.44232-1.0247,0.6855-2.1606,0.6855-3.3576,0-4.5182-3.5037-8.1809-7.8305-8.1809-3.0961,0-5.7674,1.8964-7.0395,4.6188-3.095-6.631-7.7043-10.84-12.853-10.84z" fill="#FFF"/>
   <path d="m225,470.94c-26.431,0-47.844,15.994-47.844,35.719,0,19.724,21.413,35.719,47.844,35.719,8.5826,0,16.629-1.7039,23.594-4.6562,12.09,12.871,38.241,21.781,68.562,21.781,29.599,0,55.205-8.4978,67.656-20.875,4.85,0.57224,9.9412,0.875,15.188,0.875,33.137,0,60-12.134,60-27.125s-26.863-27.156-60-27.156c-14.296,0-27.412,2.2557-37.719,6.0312-12.605-4.6885-28.207-7.4688-45.125-7.4688-18.325,0-35.153,3.2708-48.25,8.6875-7.36-12.67-24.24-21.53-43.91-21.53z" fill-opacity="0.3188406" transform="matrix(0.42184401,0,0,0.54539107,-126.82768,281.26183)" filter="url(#filter3803)" fill="#438dbc"/>
  </g>
  <g transform="matrix(0.4628638,0,0,0.50285975,105.34197,440.62644)">
   <path d="m410.72,410.94c-61.781,0-117.28,14.449-155.59,37.406-3.9289-6.1765-10.825-10.281-18.688-10.281-10.498,0-19.283,7.3211-21.562,17.125-3.0731-1.7869-6.7005-2.8438-10.594-2.8438-11.046,0-20,8.337-20,18.594,0,1.7523,0.29277,3.4241,0.78125,5.0312-67.424,5.1172-119.34,36.72-119.34,74.969,0,41.816,62.032,75.719,138.56,75.719,12.4,0,24.407-0.92439,35.844-2.5938,5.266,17.11,23.358,29.719,44.875,29.719,19.993,0,37.056-10.887,43.594-26.156,25.215,5.8066,52.974,9.0312,82.125,9.0312,54.292,0,103.75-11.186,140.94-29.469,12.491,2.4,25.866,3.75,39.781,3.75,68.641,0,124.28-31.664,124.28-70.719,0-32.926-39.548-60.595-93.094-68.469,0.15188-1.2069,0.21875-2.4448,0.21875-3.6875,0-18.146-16.612-32.844-37.125-32.844-10.09,0-19.244,3.5673-25.938,9.3438-37.956-20.772-90.712-33.625-149.06-33.625z" fill="#FFF"/>
   <path style="enable-background:accumulate;color:#000000;" d="m416.44,492.38c-36.452,0-68.739,10.12-88.594,25.719-16.855-7.9084-41.363-12.875-68.656-12.875-50.832,0-92.031,17.26-92.031,38.562s41.2,38.594,92.031,38.594c20.195,0,38.855-2.7536,54.031-7.375,14.891,24.253,55.488,41.656,103.22,41.656,46.694,0,86.537-16.663,102.19-40.094,15.587,5.4307,35.135,8.6562,56.375,8.6562,50.889,0,92.156-18.557,92.156-41.438,0-22.88-41.267-41.406-92.156-41.406-28.537,0-54.064,5.8166-70.969,14.969-19.93-15.17-51.73-24.97-87.59-24.97z" fill-opacity="0.30434798" fill-rule="nonzero" filter="url(#filter3803-3)" fill="#438dbc"/>
  </g>
  <g transform="matrix(0.34371482,0,0,0.42649335,-13.364672,626.99432)">
   <path d="m282.84,396.66c-16.042,0-29.844,13.333-36.219,32.562-6.9019-1.6716-14.141-2.5625-21.625-2.5625-46.155,0-83.562,33.903-83.562,75.719s37.407,75.688,83.562,75.688c8.371,0,16.438-1.1124,24.062-3.1875,14.485,10.612,37.359,17.5,63.094,17.5,34.933,0,64.559-12.634,75.125-30.156,63.67-2.11,114.16-31.61,114.16-67.72,0-37.476-54.374-67.844-121.44-67.844-11.47,0-22.544,0.90158-33.062,2.5625,1.0486-1.8788,1.625-3.9616,1.625-6.1562,0-8.2843-8.3058-15-18.562-15-7.3394,0-13.672,3.4772-16.688,8.4688-7.3369-12.158-18.263-19.875-30.469-19.875z" fill="#FFF"/>
   <path d="m225,470.94c-26.431,0-47.844,15.994-47.844,35.719,0,19.724,21.413,35.719,47.844,35.719,8.5826,0,16.629-1.7039,23.594-4.6562,12.09,12.871,38.241,21.781,68.562,21.781,29.599,0,55.205-8.4978,67.656-20.875,4.85,0.57224,9.9412,0.875,15.188,0.875,33.137,0,60-12.134,60-27.125s-26.863-27.156-60-27.156c-14.296,0-27.412,2.2557-37.719,6.0312-12.605-4.6885-28.207-7.4688-45.125-7.4688-18.325,0-35.153,3.2708-48.25,8.6875-7.36-12.67-24.24-21.53-43.91-21.53z" fill-opacity="0.3188406" filter="url(#filter3803-1)" fill="#438dbc"/>
  </g>
  <g transform="matrix(0.62498036,0,0,0.76919691,339.88341,678.20242)">
   <path d="m282.84,396.66c-16.042,0-29.844,13.333-36.219,32.562-6.9019-1.6716-14.141-2.5625-21.625-2.5625-46.155,0-83.562,33.903-83.562,75.719s37.407,75.688,83.562,75.688c8.371,0,16.438-1.1124,24.062-3.1875,14.485,10.612,37.359,17.5,63.094,17.5,34.933,0,64.559-12.634,75.125-30.156,63.67-2.11,114.16-31.61,114.16-67.72,0-37.476-54.374-67.844-121.44-67.844-11.47,0-22.544,0.90158-33.062,2.5625,1.0486-1.8788,1.625-3.9616,1.625-6.1562,0-8.2843-8.3058-15-18.562-15-7.3394,0-13.672,3.4772-16.688,8.4688-7.3369-12.158-18.263-19.875-30.469-19.875z" fill="#FFF"/>
   <path d="m225,470.94c-26.431,0-47.844,15.994-47.844,35.719,0,19.724,21.413,35.719,47.844,35.719,8.5826,0,16.629-1.7039,23.594-4.6562,12.09,12.871,38.241,21.781,68.562,21.781,29.599,0,55.205-8.4978,67.656-20.875,4.85,0.57224,9.9412,0.875,15.188,0.875,33.137,0,60-12.134,60-27.125s-26.863-27.156-60-27.156c-14.296,0-27.412,2.2557-37.719,6.0312-12.605-4.6885-28.207-7.4688-45.125-7.4688-18.325,0-35.153,3.2708-48.25,8.6875-7.36-12.67-24.24-21.53-43.91-21.53z" fill-opacity="0.3188406" filter="url(#filter3803-1-1)" fill="#438dbc"/>
  </g>
  <g transform="matrix(0.40572094,0,0,0.41614924,160.04865,712.78513)">
   <path d="m410.72,410.94c-61.781,0-117.28,14.449-155.59,37.406-3.9289-6.1765-10.825-10.281-18.688-10.281-10.498,0-19.283,7.3211-21.562,17.125-3.0731-1.7869-6.7005-2.8438-10.594-2.8438-11.046,0-20,8.337-20,18.594,0,1.7523,0.29277,3.4241,0.78125,5.0312-67.424,5.1172-119.34,36.72-119.34,74.969,0,41.816,62.032,75.719,138.56,75.719,12.4,0,24.407-0.92439,35.844-2.5938,5.266,17.11,23.358,29.719,44.875,29.719,19.993,0,37.056-10.887,43.594-26.156,25.215,5.8066,52.974,9.0312,82.125,9.0312,54.292,0,103.75-11.186,140.94-29.469,12.491,2.4,25.866,3.75,39.781,3.75,68.641,0,124.28-31.664,124.28-70.719,0-32.926-39.548-60.595-93.094-68.469,0.15188-1.2069,0.21875-2.4448,0.21875-3.6875,0-18.146-16.612-32.844-37.125-32.844-10.09,0-19.244,3.5673-25.938,9.3438-37.956-20.772-90.712-33.625-149.06-33.625z" fill="#FFF"/>
   <path style="enable-background:accumulate;color:#000000;" d="m416.44,492.38c-36.452,0-68.739,10.12-88.594,25.719-16.855-7.9084-41.363-12.875-68.656-12.875-50.832,0-92.031,17.26-92.031,38.562s41.2,38.594,92.031,38.594c20.195,0,38.855-2.7536,54.031-7.375,14.891,24.253,55.488,41.656,103.22,41.656,46.694,0,86.537-16.663,102.19-40.094,15.587,5.4307,35.135,8.6562,56.375,8.6562,50.889,0,92.156-18.557,92.156-41.438,0-22.88-41.267-41.406-92.156-41.406-28.537,0-54.064,5.8166-70.969,14.969-19.93-15.17-51.73-24.97-87.59-24.97z" fill-opacity="0.30434798" fill-rule="nonzero" filter="url(#filter3803-3-6)" fill="#438dbc"/>
  </g>
  <g transform="matrix(0.62498036,0,0,0.76919691,339.88341,178.20242)">
   <path d="m282.84,396.66c-16.042,0-29.844,13.333-36.219,32.562-6.9019-1.6716-14.141-2.5625-21.625-2.5625-46.155,0-83.562,33.903-83.562,75.719s37.407,75.688,83.562,75.688c8.371,0,16.438-1.1124,24.062-3.1875,14.485,10.612,37.359,17.5,63.094,17.5,34.933,0,64.559-12.634,75.125-30.156,63.67-2.11,114.16-31.61,114.16-67.72,0-37.476-54.374-67.844-121.44-67.844-11.47,0-22.544,0.90158-33.062,2.5625,1.0486-1.8788,1.625-3.9616,1.625-6.1562,0-8.2843-8.3058-15-18.562-15-7.3394,0-13.672,3.4772-16.688,8.4688-7.3369-12.158-18.263-19.875-30.469-19.875z" fill="#FFF"/>
   <path d="m225,470.94c-26.431,0-47.844,15.994-47.844,35.719,0,19.724,21.413,35.719,47.844,35.719,8.5826,0,16.629-1.7039,23.594-4.6562,12.09,12.871,38.241,21.781,68.562,21.781,29.599,0,55.205-8.4978,67.656-20.875,4.85,0.57224,9.9412,0.875,15.188,0.875,33.137,0,60-12.134,60-27.125s-26.863-27.156-60-27.156c-14.296,0-27.412,2.2557-37.719,6.0312-12.605-4.6885-28.207-7.4688-45.125-7.4688-18.325,0-35.153,3.2708-48.25,8.6875-7.36-12.67-24.24-21.53-43.91-21.53z" fill-opacity="0.3188406" filter="url(#filter3803-1-1-6)" fill="#438dbc"/>
  </g>
  <g transform="matrix(0.62498036,0,0,0.76919691,-160.11659,678.20242)">
   <path d="m282.84,396.66c-16.042,0-29.844,13.333-36.219,32.562-6.9019-1.6716-14.141-2.5625-21.625-2.5625-46.155,0-83.562,33.903-83.562,75.719s37.407,75.688,83.562,75.688c8.371,0,16.438-1.1124,24.062-3.1875,14.485,10.612,37.359,17.5,63.094,17.5,34.933,0,64.559-12.634,75.125-30.156,63.67-2.11,114.16-31.61,114.16-67.72,0-37.476-54.374-67.844-121.44-67.844-11.47,0-22.544,0.90158-33.062,2.5625,1.0486-1.8788,1.625-3.9616,1.625-6.1562,0-8.2843-8.3058-15-18.562-15-7.3394,0-13.672,3.4772-16.688,8.4688-7.3369-12.158-18.263-19.875-30.469-19.875z" fill="#FFF"/>
   <path d="m225,470.94c-26.431,0-47.844,15.994-47.844,35.719,0,19.724,21.413,35.719,47.844,35.719,8.5826,0,16.629-1.7039,23.594-4.6562,12.09,12.871,38.241,21.781,68.562,21.781,29.599,0,55.205-8.4978,67.656-20.875,4.85,0.57224,9.9412,0.875,15.188,0.875,33.137,0,60-12.134,60-27.125s-26.863-27.156-60-27.156c-14.296,0-27.412,2.2557-37.719,6.0312-12.605-4.6885-28.207-7.4688-45.125-7.4688-18.325,0-35.153,3.2708-48.25,8.6875-7.36-12.67-24.24-21.53-43.91-21.53z" fill-opacity="0.3188406" filter="url(#filter3803-1-1-6-6)" fill="#438dbc"/>
  </g>
 </g>
</svg>
